<svg width="38" height="38" viewBox="0 0 38 38" fill="none" xmlns="http://www.w3.org/2000/svg">
<path d="M19 0C15.2422 0 11.5687 1.11433 8.44417 3.20208C5.31964 5.28982 2.88436 8.25722 1.4463 11.729C0.00823236 15.2008 -0.368031 19.0211 0.365088 22.7067C1.09821 26.3924 2.90778 29.7778 5.56498 32.435C8.22218 35.0922 11.6077 36.9018 15.2933 37.6349C18.9789 38.368 22.7992 37.9918 26.271 36.5537C29.7428 35.1156 32.7102 32.6804 34.7979 29.5558C36.8857 26.4313 38 22.7578 38 19C37.9947 13.9625 35.9912 9.13288 32.4292 5.57085C28.8671 2.00881 24.0375 0.00531967 19 0ZM26.3077 21.9231C26.3077 22.3107 26.1537 22.6824 25.8796 22.9565C25.6055 23.2306 25.2338 23.3846 24.8462 23.3846C24.4585 23.3846 24.0868 23.2306 23.8127 22.9565C23.5386 22.6824 23.3846 22.3107 23.3846 21.9231V16.6816L14.1879 25.8802C14.0521 26.016 13.8909 26.1237 13.7135 26.1972C13.536 26.2707 13.3459 26.3085 13.1539 26.3085C12.9618 26.3085 12.7717 26.2707 12.5942 26.1972C12.4168 26.1237 12.2556 26.016 12.1198 25.8802C11.984 25.7444 11.8763 25.5832 11.8028 25.4058C11.7293 25.2283 11.6915 25.0382 11.6915 24.8461C11.6915 24.6541 11.7293 24.464 11.8028 24.2865C11.8763 24.1091 11.984 23.9479 12.1198 23.8121L21.3184 14.6154H16.0769C15.6893 14.6154 15.3176 14.4614 15.0435 14.1873C14.7694 13.9132 14.6154 13.5415 14.6154 13.1538C14.6154 12.7662 14.7694 12.3945 15.0435 12.1204C15.3176 11.8463 15.6893 11.6923 16.0769 11.6923H24.8462C25.2338 11.6923 25.6055 11.8463 25.8796 12.1204C26.1537 12.3945 26.3077 12.7662 26.3077 13.1538V21.9231Z" fill="white"/>
</svg>
