<svg width="25" height="25" viewBox="0 0 25 25" fill="none" xmlns="http://www.w3.org/2000/svg">
<path d="M12.3193 2.08337L12.3194 1.30212H12.3193V2.08337ZM20.4707 15.5052H21.252V15.5052L20.4707 15.5052ZM17.624 18.8373L17.7313 19.6111L17.7314 19.6111L17.624 18.8373ZM12.3184 19.2933L12.3184 20.0746H12.3184V19.2933ZM7.0127 18.8373L6.90533 19.6111L6.90539 19.6111L7.0127 18.8373ZM4.16602 15.5052L3.38477 15.5052V15.5052H4.16602ZM4.65221 13.7364L3.98128 13.3361L4.65221 13.7364ZM12.3193 2.08337L12.3193 2.86462C15.3894 2.8648 17.8779 5.35388 17.8779 8.42419H18.6592H19.4404C19.4404 4.49116 16.2526 1.30235 12.3194 1.30212L12.3193 2.08337ZM18.6592 8.42419H17.8779V10.6032H18.6592H19.4404V8.42419H18.6592ZM19.9848 13.7364L19.3138 14.1365C19.5522 14.5365 19.6894 15.0037 19.6895 15.5053L20.4707 15.5052L21.252 15.5052C21.2519 14.7142 21.0345 13.9715 20.6558 13.3363L19.9848 13.7364ZM20.4707 15.5052H19.6895C19.6895 16.8034 18.7661 17.8901 17.5167 18.0634L17.624 18.8373L17.7314 19.6111C19.7895 19.3256 21.252 17.5464 21.252 15.5052H20.4707ZM17.624 18.8373L17.5167 18.0634C15.881 18.2903 13.8726 18.5121 12.3184 18.5121V19.2933V20.0746C13.9856 20.0746 16.0823 19.8398 17.7313 19.6111L17.624 18.8373ZM12.3184 19.2933L12.3184 18.5121C10.7641 18.5121 8.75574 18.2903 7.12 18.0634L7.0127 18.8373L6.90539 19.6111C8.55439 19.8398 10.6511 20.0746 12.3184 20.0746L12.3184 19.2933ZM7.0127 18.8373L7.12006 18.0634C5.87063 17.8901 4.94727 16.8033 4.94727 15.5052H4.16602H3.38477C3.38477 17.5464 4.84729 19.3256 6.90533 19.6111L7.0127 18.8373ZM4.16602 15.5052L4.94727 15.5053C4.94729 15.0037 5.08456 14.5365 5.32313 14.1366L4.65221 13.7364L3.98128 13.3361C3.60235 13.9713 3.3848 14.714 3.38477 15.5052L4.16602 15.5052ZM5.97852 10.6027H6.75977V8.42419H5.97852H5.19727V10.6027H5.97852ZM5.97852 8.42419H6.75977C6.75977 5.35386 9.249 2.86462 12.3193 2.86462V2.08337V1.30212C8.38606 1.30212 5.19727 4.49092 5.19727 8.42419H5.97852ZM4.65221 13.7364L5.32313 14.1366C5.5886 13.6917 5.95936 13.1305 6.23459 12.5792C6.52006 12.0075 6.75977 11.3454 6.75977 10.6027H5.97852H5.19727C5.19727 11.0064 5.0675 11.4189 4.83666 11.8813C4.59558 12.3641 4.30319 12.7965 3.98128 13.3361L4.65221 13.7364ZM18.6592 10.6032H17.8779C17.8779 11.3457 18.1175 12.0077 18.4028 12.5793C18.6779 13.1305 19.0485 13.6916 19.3138 14.1365L19.9848 13.7364L20.6558 13.3363C20.3341 12.7967 20.0419 12.3644 19.8009 11.8816C19.5701 11.4193 19.4404 11.0069 19.4404 10.6032H18.6592Z" fill="#10234D"/>
<path d="M14.582 21.7021C14.0952 22.4343 13.2627 22.9169 12.3175 22.9169C11.3724 22.9169 10.5399 22.4343 10.0531 21.7021" stroke="#10234D" stroke-width="1.5625" stroke-linecap="round"/>
</svg>
