<svg width="158" height="28" viewBox="0 0 158 28" fill="none" xmlns="http://www.w3.org/2000/svg">
<path d="M0.000355065 27.4473V1.26545H10.0231C11.9151 1.26545 13.4876 1.56374 14.7404 2.16033C16.0018 2.7484 16.9435 3.5538 17.5657 4.57653C18.1964 5.59925 18.5117 6.75834 18.5117 8.0538C18.5117 9.11914 18.3072 10.0311 17.8981 10.7896C17.489 11.5396 16.9393 12.149 16.2489 12.6177C15.5586 13.0865 14.7873 13.4231 13.935 13.6277V13.8833C14.864 13.9345 15.7546 14.22 16.6069 14.7399C17.4677 15.2512 18.1708 15.9757 18.7163 16.9132C19.2617 17.8507 19.5344 18.9842 19.5344 20.3137C19.5344 21.6689 19.2063 22.8876 18.5501 23.97C17.8938 25.0439 16.9052 25.8919 15.5842 26.514C14.2631 27.1362 12.6012 27.4473 10.5984 27.4473H0.000355065ZM4.74325 23.4842H9.84411C11.5657 23.4842 12.8058 23.1561 13.5643 22.4998C14.3313 21.835 14.7148 20.9828 14.7148 19.943C14.7148 19.1674 14.5231 18.4686 14.1396 17.8464C13.756 17.2157 13.2106 16.7214 12.5032 16.3635C11.7958 15.997 10.9521 15.8137 9.97195 15.8137H4.74325V23.4842ZM4.74325 12.4004H9.43502C10.2532 12.4004 10.9904 12.2512 11.6467 11.9529C12.3029 11.6461 12.8185 11.2157 13.1935 10.6618C13.5771 10.0993 13.7688 9.43448 13.7688 8.66744C13.7688 7.65323 13.4109 6.818 12.695 6.16175C11.9876 5.5055 10.935 5.17738 9.53729 5.17738H4.74325V12.4004ZM20.216 27.4473V7.8109H24.7032V11.0836H24.9077C25.2657 9.95011 25.8793 9.07653 26.7486 8.46289C27.6265 7.84073 28.6279 7.52965 29.7529 7.52965C30.0086 7.52965 30.2941 7.54244 30.6094 7.568C30.9333 7.58505 31.2018 7.61488 31.4148 7.65749V11.9146C31.2188 11.8464 30.9077 11.7868 30.4816 11.7356C30.064 11.676 29.6591 11.6461 29.2671 11.6461C28.4234 11.6461 27.6648 11.8294 26.9915 12.1958C26.3268 12.5538 25.8026 13.0524 25.4191 13.6916C25.0356 14.3308 24.8438 15.068 24.8438 15.9032V27.4473H20.216ZM39.0062 27.8308C37.0885 27.8308 35.4266 27.4089 34.0204 26.5652C32.6141 25.7214 31.5232 24.541 30.7476 23.024C29.9806 21.5069 29.5971 19.7342 29.5971 17.7058C29.5971 15.6774 29.9806 13.9004 30.7476 12.3748C31.5232 10.8493 32.6141 9.66459 34.0204 8.82085C35.4266 7.9771 37.0885 7.55522 39.0062 7.55522C40.9238 7.55522 42.5857 7.9771 43.9919 8.82085C45.3982 9.66459 46.4848 10.8493 47.2519 12.3748C48.0275 13.9004 48.4152 15.6774 48.4152 17.7058C48.4152 19.7342 48.0275 21.5069 47.2519 23.024C46.4848 24.541 45.3982 25.7214 43.9919 26.5652C42.5857 27.4089 40.9238 27.8308 39.0062 27.8308ZM39.0317 24.1234C40.0715 24.1234 40.9408 23.8379 41.6397 23.2669C42.3385 22.6873 42.8584 21.9118 43.1993 20.9402C43.5488 19.9686 43.7235 18.8862 43.7235 17.693C43.7235 16.4913 43.5488 15.4047 43.1993 14.4331C42.8584 13.4529 42.3385 12.6731 41.6397 12.0936C40.9408 11.514 40.0715 11.2243 39.0317 11.2243C37.9664 11.2243 37.08 11.514 36.3726 12.0936C35.6738 12.6731 35.1496 13.4529 34.8002 14.4331C34.4593 15.4047 34.2888 16.4913 34.2888 17.693C34.2888 18.8862 34.4593 19.9686 34.8002 20.9402C35.1496 21.9118 35.6738 22.6873 36.3726 23.2669C37.08 23.8379 37.9664 24.1234 39.0317 24.1234ZM49.1032 27.4473V7.8109H53.5264V11.1475H53.7566C54.1657 10.0225 54.8432 9.14471 55.7892 8.51403C56.7353 7.87482 57.8645 7.55522 59.177 7.55522C60.5066 7.55522 61.6273 7.87908 62.5392 8.52681C63.4597 9.16601 64.1074 10.0396 64.4824 11.1475H64.687C65.1216 10.0566 65.8546 9.18732 66.8858 8.5396C67.9256 7.88335 69.1571 7.55522 70.5804 7.55522C72.3872 7.55522 73.8617 8.12624 75.0037 9.26829C76.1458 10.4103 76.7168 12.0765 76.7168 14.2669V27.4473H72.0762V14.9828C72.0762 13.764 71.7523 12.8734 71.1046 12.3109C70.4568 11.7399 69.6642 11.4544 68.7267 11.4544C67.6103 11.4544 66.7367 11.8038 66.106 12.5027C65.4838 13.193 65.1728 14.0922 65.1728 15.2001V27.4473H60.6344V14.791C60.6344 13.7768 60.3276 12.9672 59.7139 12.362C59.1088 11.7569 58.3162 11.4544 57.3361 11.4544C56.6713 11.4544 56.0662 11.6248 55.5208 11.9657C54.9753 12.2981 54.5407 12.7711 54.2168 13.3848C53.8929 13.9899 53.731 14.6973 53.731 15.5069V27.4473H49.1032ZM86.7371 27.8308C84.8195 27.8308 83.1575 27.4089 81.7513 26.5652C80.345 25.7214 79.2541 24.541 78.4786 23.024C77.7115 21.5069 77.328 19.7342 77.328 17.7058C77.328 15.6774 77.7115 13.9004 78.4786 12.3748C79.2541 10.8493 80.345 9.66459 81.7513 8.82085C83.1575 7.9771 84.8195 7.55522 86.7371 7.55522C88.6547 7.55522 90.3166 7.9771 91.7229 8.82085C93.1291 9.66459 94.2158 10.8493 94.9828 12.3748C95.7584 13.9004 96.1462 15.6774 96.1462 17.7058C96.1462 19.7342 95.7584 21.5069 94.9828 23.024C94.2158 24.541 93.1291 25.7214 91.7229 26.5652C90.3166 27.4089 88.6547 27.8308 86.7371 27.8308ZM86.7627 24.1234C87.8024 24.1234 88.6717 23.8379 89.3706 23.2669C90.0695 22.6873 90.5894 21.9118 90.9303 20.9402C91.2797 19.9686 91.4544 18.8862 91.4544 17.693C91.4544 16.4913 91.2797 15.4047 90.9303 14.4331C90.5894 13.4529 90.0695 12.6731 89.3706 12.0936C88.6717 11.514 87.8024 11.2243 86.7627 11.2243C85.6973 11.2243 84.811 11.514 84.1036 12.0936C83.4047 12.6731 82.8806 13.4529 82.5311 14.4331C82.1902 15.4047 82.0198 16.4913 82.0198 17.693C82.0198 18.8862 82.1902 19.9686 82.5311 20.9402C82.8806 21.9118 83.4047 22.6873 84.1036 23.2669C84.811 23.8379 85.6973 24.1234 86.7627 24.1234ZM97.0386 27.4473V1.26545H106.857C108.868 1.26545 110.556 1.61488 111.919 2.31374C113.291 3.01261 114.327 3.99272 115.026 5.25408C115.733 6.50692 116.087 7.96857 116.087 9.63903C116.087 11.318 115.729 12.7754 115.013 14.0112C114.306 15.2385 113.262 16.1887 111.881 16.862C110.5 17.5268 108.804 17.8592 106.793 17.8592H99.8V13.9217H106.154C107.33 13.9217 108.293 13.7598 109.043 13.4359C109.793 13.1035 110.347 12.622 110.705 11.9913C111.071 11.3521 111.255 10.568 111.255 9.63903C111.255 8.71005 111.071 7.91744 110.705 7.26119C110.338 6.59641 109.78 6.09357 109.03 5.75266C108.28 5.40323 107.313 5.22852 106.128 5.22852H101.782V27.4473H97.0386ZM110.564 15.5836L117.046 27.4473H111.753L105.387 15.5836H110.564ZM117.008 27.4473V7.8109H121.636V27.4473H117.008ZM119.335 5.02397C118.602 5.02397 117.971 4.78107 117.443 4.29528C116.914 3.80096 116.65 3.20863 116.65 2.51829C116.65 1.81942 116.914 1.22709 117.443 0.741298C117.971 0.24698 118.602 -0.000178337 119.335 -0.000178337C120.076 -0.000178337 120.707 0.24698 121.227 0.741298C121.755 1.22709 122.02 1.81942 122.02 2.51829C122.02 3.20863 121.755 3.80096 121.227 4.29528C120.707 4.78107 120.076 5.02397 119.335 5.02397ZM138.675 13.0012L134.456 13.4615C134.337 13.0353 134.128 12.6348 133.83 12.2598C133.54 11.8848 133.148 11.5822 132.653 11.3521C132.159 11.122 131.554 11.0069 130.838 11.0069C129.875 11.0069 129.065 11.2157 128.409 11.6333C127.761 12.051 127.442 12.5922 127.45 13.2569C127.442 13.8279 127.651 14.2924 128.077 14.6504C128.511 15.0083 129.227 15.3024 130.224 15.5325L133.574 16.2484C135.432 16.649 136.813 17.2839 137.716 18.1532C138.628 19.0225 139.088 20.1603 139.097 21.5666C139.088 22.8024 138.726 23.8933 138.01 24.8393C137.303 25.7768 136.318 26.5098 135.057 27.0382C133.795 27.5666 132.347 27.8308 130.71 27.8308C128.307 27.8308 126.372 27.3279 124.906 26.3223C123.44 25.3081 122.567 23.8975 122.286 22.0907L126.798 21.6561C127.003 22.5424 127.438 23.2115 128.102 23.6632C128.767 24.1149 129.632 24.3407 130.697 24.3407C131.797 24.3407 132.679 24.1149 133.344 23.6632C134.017 23.2115 134.354 22.6532 134.354 21.9885C134.354 21.426 134.136 20.9615 133.702 20.595C133.276 20.2285 132.611 19.9473 131.707 19.7512L128.358 19.0481C126.474 18.6561 125.081 17.9956 124.178 17.0666C123.274 16.1291 122.827 14.9444 122.835 13.5126C122.827 12.3024 123.155 11.2541 123.82 10.3677C124.493 9.47283 125.426 8.78249 126.619 8.2967C127.821 7.80238 129.206 7.55522 130.774 7.55522C133.075 7.55522 134.886 8.04528 136.207 9.02539C137.537 10.0055 138.359 11.3308 138.675 13.0012ZM148.366 27.8308C146.397 27.8308 144.697 27.4217 143.265 26.6035C141.842 25.7768 140.747 24.6092 139.98 23.1007C139.212 21.5836 138.829 19.7981 138.829 17.7441C138.829 15.7243 139.212 13.9515 139.98 12.426C140.755 10.8919 141.837 9.69869 143.227 8.84641C144.616 7.98562 146.248 7.55522 148.123 7.55522C149.333 7.55522 150.475 7.75124 151.549 8.14329C152.631 8.52681 153.586 9.1234 154.413 9.93306C155.248 10.7427 155.904 11.774 156.381 13.0268C156.859 14.2711 157.097 15.7541 157.097 17.4757V18.8947H141.002V15.7754H152.661C152.653 14.889 152.461 14.1007 152.086 13.4103C151.711 12.7115 151.187 12.1618 150.514 11.7612C149.849 11.3606 149.073 11.1603 148.187 11.1603C147.241 11.1603 146.41 11.3904 145.694 11.8507C144.978 12.3024 144.42 12.899 144.019 13.6404C143.627 14.3734 143.427 15.1788 143.418 16.0566V18.7797C143.418 19.9217 143.627 20.9018 144.045 21.72C144.462 22.5297 145.046 23.1518 145.796 23.5865C146.546 24.0126 147.424 24.2257 148.43 24.2257C149.103 24.2257 149.712 24.1319 150.258 23.9444C150.803 23.7484 151.276 23.4629 151.677 23.0879C152.078 22.7129 152.38 22.2484 152.585 21.6944L156.906 22.1802C156.633 23.3223 156.113 24.3194 155.346 25.1717C154.587 26.0154 153.616 26.6717 152.431 27.1404C151.247 27.6007 149.891 27.8308 148.366 27.8308Z" fill="black"/>
</svg>
