<svg width="34" height="34" viewBox="0 0 34 34" fill="none" xmlns="http://www.w3.org/2000/svg">
<path d="M33.4297 16.77C33.4244 20.8691 31.9256 24.8249 29.2154 27.8921C26.5053 30.9593 22.7709 32.9263 18.7158 33.4226C18.6255 33.4328 18.534 33.4238 18.4475 33.396C18.361 33.3682 18.2813 33.3223 18.2137 33.2613C18.1461 33.2004 18.0922 33.1257 18.0554 33.0423C18.0187 32.9589 18 32.8687 18.0006 32.7775V20.6404H21.8579C22.0341 20.6408 22.2086 20.6048 22.3704 20.5347C22.5322 20.4646 22.6779 20.3619 22.7985 20.2328C22.9191 20.1038 23.012 19.9513 23.0713 19.7848C23.1307 19.6183 23.1553 19.4413 23.1436 19.2648C23.1152 18.933 22.9627 18.6244 22.7167 18.4009C22.4707 18.1774 22.1495 18.0556 21.8177 18.0601H18.0006V14.1897C18.0006 13.5054 18.2715 12.849 18.7538 12.3651C19.236 11.8812 19.8901 11.6094 20.5721 11.6094H23.1436C23.3199 11.6098 23.4943 11.5738 23.6562 11.5037C23.818 11.4336 23.9637 11.3308 24.0843 11.2018C24.2049 11.0728 24.2977 10.9203 24.3571 10.7538C24.4164 10.5872 24.4411 10.4102 24.4294 10.2338C24.4009 9.90145 24.2479 9.59232 24.0013 9.36875C23.7546 9.14517 23.4326 9.02379 23.1002 9.0291H20.5721C19.2081 9.0291 17.8999 9.5728 16.9354 10.5406C15.9709 11.5084 15.4291 12.821 15.4291 14.1897V18.0601H11.5718C11.3955 18.0597 11.2211 18.0957 11.0592 18.1658C10.8974 18.236 10.7517 18.3387 10.6311 18.4677C10.5105 18.5967 10.4177 18.7492 10.3583 18.9157C10.2989 19.0823 10.2743 19.2593 10.286 19.4357C10.3145 19.7681 10.4674 20.0772 10.7141 20.3008C10.9608 20.5244 11.2828 20.6457 11.6152 20.6404H15.4291V32.7807C15.4296 32.8717 15.4109 32.9619 15.3743 33.0451C15.3377 33.1284 15.2839 33.203 15.2165 33.2639C15.1491 33.3248 15.0696 33.3707 14.9832 33.3986C14.8969 33.4265 14.8056 33.4358 14.7155 33.4258C10.5518 32.917 6.73018 30.8582 4.00712 27.657C1.28405 24.4558 -0.142015 20.3454 0.0111774 16.1394C0.332618 7.43093 7.36251 0.351247 16.0478 0.0125834C18.2964 -0.0748143 20.5395 0.293756 22.6429 1.09625C24.7463 1.89874 26.6668 3.11867 28.2895 4.68307C29.9122 6.24747 31.2038 8.1242 32.087 10.201C32.9702 12.2778 33.4268 14.512 33.4297 16.77Z" fill="#004A79"/>
</svg>
