<svg width="35" height="35" viewBox="0 0 35 35" fill="none" xmlns="http://www.w3.org/2000/svg">
<g clip-path="url(#clip0_511_362)">
<rect width="35" height="35" rx="17.5" fill="white"/>
<path d="M12.0312 31.7188H22.9688" stroke="black" stroke-width="1.5" stroke-linecap="round" stroke-linejoin="round"/>
<path d="M17.5 27.3438V19.6875" stroke="black" stroke-width="1.5" stroke-linecap="round" stroke-linejoin="round"/>
<path d="M13.125 15.3125L17.5 19.6875L21.875 15.3125" stroke="black" stroke-width="1.5" stroke-linecap="round" stroke-linejoin="round"/>
<path d="M10.7599 22.8321C9.4597 21.8163 8.40655 20.5192 7.67958 19.038C6.95262 17.5569 6.57075 15.9302 6.56267 14.2803C6.52986 8.35218 11.3095 3.418 17.2363 3.28128C19.5332 3.22565 21.7893 3.89474 23.6845 5.19362C25.5796 6.49251 27.0177 8.35522 27.7945 10.5175C28.5713 12.6797 28.6475 15.0317 28.0123 17.2397C27.377 19.4477 26.0626 21.3996 24.2554 22.8184C23.8568 23.1274 23.5338 23.5232 23.3109 23.9756C23.088 24.4281 22.9711 24.9254 22.9689 25.4297V26.25C22.9689 26.5401 22.8537 26.8183 22.6486 27.0234C22.4434 27.2286 22.1652 27.3438 21.8752 27.3438H13.1252C12.8351 27.3438 12.5569 27.2286 12.3518 27.0234C12.1467 26.8183 12.0314 26.5401 12.0314 26.25V25.4297C12.0309 24.9286 11.9161 24.4341 11.6958 23.984C11.4755 23.5339 11.1554 23.1399 10.7599 22.8321Z" stroke="black" stroke-width="1.5" stroke-linecap="round" stroke-linejoin="round"/>
</g>
<defs>
<clipPath id="clip0_511_362">
<rect width="35" height="35" rx="17.5" fill="white"/>
</clipPath>
</defs>
</svg>
