<svg width="34" height="34" viewBox="0 0 34 34" fill="none" xmlns="http://www.w3.org/2000/svg">
<circle cx="16.7148" cy="16.7148" r="16.297" stroke="#004A79" stroke-width="0.835743"/>
<path d="M25.9816 6.68555H8.33115C7.90558 6.68555 7.49745 6.85488 7.19653 7.15628C6.89562 7.45769 6.72656 7.86649 6.72656 8.29274V25.9719C6.72656 26.3982 6.89562 26.807 7.19653 27.1084C7.49745 27.4098 7.90558 27.5791 8.33115 27.5791H25.9816C26.4071 27.5791 26.8153 27.4098 27.1162 27.1084C27.4171 26.807 27.5862 26.3982 27.5862 25.9719V8.29274C27.5862 7.86649 27.4171 7.45769 27.1162 7.15628C26.8153 6.85488 26.4071 6.68555 25.9816 6.68555ZM13.9472 21.9539C13.9472 22.167 13.8627 22.3714 13.7122 22.5221C13.5617 22.6729 13.3577 22.7575 13.1449 22.7575C12.9321 22.7575 12.7281 22.6729 12.5776 22.5221C12.4271 22.3714 12.3426 22.167 12.3426 21.9539V15.5251C12.3426 15.312 12.4271 15.1076 12.5776 14.9569C12.7281 14.8062 12.9321 14.7215 13.1449 14.7215C13.3577 14.7215 13.5617 14.8062 13.7122 14.9569C13.8627 15.1076 13.9472 15.312 13.9472 15.5251V21.9539ZM13.1449 13.9179C12.9069 13.9179 12.6742 13.8472 12.4763 13.7148C12.2784 13.5823 12.1242 13.3941 12.0331 13.1738C11.942 12.9536 11.9182 12.7112 11.9646 12.4774C12.011 12.2435 12.1256 12.0288 12.2939 11.8602C12.4622 11.6916 12.6767 11.5768 12.9101 11.5303C13.1436 11.4838 13.3855 11.5077 13.6054 11.5989C13.8253 11.6901 14.0133 11.8446 14.1455 12.0429C14.2778 12.2411 14.3483 12.4741 14.3483 12.7125C14.3483 13.0322 14.2215 13.3388 13.9959 13.5649C13.7702 13.7909 13.4641 13.9179 13.1449 13.9179ZM22.7724 21.9539C22.7724 22.167 22.6879 22.3714 22.5374 22.5221C22.387 22.6729 22.1829 22.7575 21.9701 22.7575C21.7573 22.7575 21.5533 22.6729 21.4028 22.5221C21.2523 22.3714 21.1678 22.167 21.1678 21.9539V18.3377C21.1678 17.8049 20.9565 17.2939 20.5804 16.9172C20.2042 16.5404 19.694 16.3287 19.1621 16.3287C18.6301 16.3287 18.12 16.5404 17.7438 16.9172C17.3677 17.2939 17.1564 17.8049 17.1564 18.3377V21.9539C17.1564 22.167 17.0718 22.3714 16.9214 22.5221C16.7709 22.6729 16.5669 22.7575 16.3541 22.7575C16.1413 22.7575 15.9372 22.6729 15.7868 22.5221C15.6363 22.3714 15.5518 22.167 15.5518 21.9539V15.5251C15.5528 15.3283 15.6259 15.1387 15.7572 14.9922C15.8885 14.8458 16.0689 14.7527 16.2642 14.7307C16.4595 14.7086 16.656 14.7591 16.8166 14.8726C16.9772 14.9861 17.0906 15.1547 17.1353 15.3463C17.678 14.9776 18.3108 14.7638 18.9657 14.7281C19.6205 14.6923 20.2728 14.836 20.8523 15.1435C21.4318 15.451 21.9168 15.9109 22.255 16.4736C22.5933 17.0364 22.7722 17.6808 22.7724 18.3377V21.9539Z" fill="#004A79"/>
</svg>
