<svg width="145" height="48" viewBox="0 0 145 48" fill="none" xmlns="http://www.w3.org/2000/svg">
<path d="M19.4115 18.876V0.467976H24.7155C27.5235 0.467976 30.6435 1.16998 30.6435 5.32998C30.6435 7.20198 29.5255 8.70998 27.3415 9.15198V9.20398C29.7595 9.38598 31.4495 11.154 31.4495 13.728C31.4495 17.966 27.7835 18.876 25.2875 18.876H19.4115ZM21.1275 2.02798V8.42398H24.6895C28.2515 8.42398 28.9275 6.47398 28.9275 5.32998C28.9275 2.75598 27.1075 2.02798 24.9235 2.02798H21.1275ZM21.1275 9.98398V17.316H25.0535C29.0835 17.316 29.7335 15.08 29.7335 13.78C29.7335 11.05 27.4975 9.98398 25.3135 9.98398H21.1275ZM34.7485 18.876V0.467976H46.0065V2.02798H36.4645V8.57998H45.4085V10.14H36.4645V17.316H46.4225V18.876H34.7485ZM47.9766 16.562L49.6146 15.47C50.5246 17.004 52.0066 17.784 53.8266 17.784C56.1406 17.784 57.9606 16.38 57.9606 14.17C57.9606 9.02198 48.4706 12.038 48.4706 5.04398C48.4706 1.76798 51.2786 -2.37226e-05 54.3726 -2.37226e-05C56.3746 -2.37226e-05 58.1426 0.675975 59.3906 2.31398L57.9086 3.37998C57.0506 2.18398 55.9066 1.55998 54.3206 1.55998C52.1106 1.55998 50.1866 2.70398 50.1866 5.04398C50.1866 10.582 59.6766 7.25398 59.6766 14.17C59.6766 17.498 56.9466 19.344 53.9566 19.344C51.5386 19.344 49.4066 18.564 47.9766 16.562ZM62.5279 18.876V0.467976H67.8319C70.4319 0.467976 73.7599 1.48198 73.7599 5.32998C73.7599 8.65798 71.1079 10.14 68.2219 10.14H64.2439V18.876H62.5279ZM64.2439 2.02798V8.57998H68.1439C70.0939 8.57998 72.0439 7.74798 72.0439 5.32998C72.0439 2.96398 70.0159 2.02798 68.0399 2.02798H64.2439ZM75.2215 9.67198C75.2215 4.05598 79.1215 -2.37226e-05 84.7375 -2.37226e-05C90.3535 -2.37226e-05 94.2535 4.05598 94.2535 9.67198C94.2535 15.288 90.3535 19.344 84.7375 19.344C79.1215 19.344 75.2215 15.288 75.2215 9.67198ZM76.9375 9.67198C76.9375 14.248 79.9275 17.784 84.7375 17.784C89.5475 17.784 92.5375 14.248 92.5375 9.67198C92.5375 5.09598 89.5475 1.55998 84.7375 1.55998C79.9275 1.55998 76.9375 5.09598 76.9375 9.67198ZM97.0611 18.876V0.467976H98.7771V8.57998H98.9331L107.851 0.467976H110.217L100.909 8.89198L110.737 18.876H108.267L98.9331 9.35998H98.7771V18.876H97.0611ZM111.916 18.876V0.467976H123.174V2.02798H113.632V8.57998H122.576V10.14H113.632V17.316H123.59V18.876H111.916ZM-0.00163579 46.876V28.468H1.71436V36.58H12.0104V28.468H13.7264V46.876H12.0104V38.14H1.71436V46.876H-0.00163579ZM16.526 37.672C16.526 32.056 20.426 28 26.042 28C31.658 28 35.558 32.056 35.558 37.672C35.558 43.288 31.658 47.344 26.042 47.344C20.426 47.344 16.526 43.288 16.526 37.672ZM18.242 37.672C18.242 42.248 21.232 45.784 26.042 45.784C30.852 45.784 33.842 42.248 33.842 37.672C33.842 33.096 30.852 29.56 26.042 29.56C21.232 29.56 18.242 33.096 18.242 37.672ZM37.2216 44.562L38.8596 43.47C39.7696 45.004 41.2516 45.784 43.0716 45.784C45.3856 45.784 47.2056 44.38 47.2056 42.17C47.2056 37.022 37.7156 40.038 37.7156 33.044C37.7156 29.768 40.5236 28 43.6176 28C45.6196 28 47.3876 28.676 48.6356 30.314L47.1536 31.38C46.2956 30.184 45.1516 29.56 43.5656 29.56C41.3556 29.56 39.4316 30.704 39.4316 33.044C39.4316 38.582 48.9216 35.254 48.9216 42.17C48.9216 45.498 46.1916 47.344 43.2016 47.344C40.7836 47.344 38.6516 46.564 37.2216 44.562ZM51.7729 46.876V28.468H57.0769C59.6769 28.468 63.0049 29.482 63.0049 33.33C63.0049 36.658 60.3529 38.14 57.4669 38.14H53.4889V46.876H51.7729ZM53.4889 30.028V36.58H57.3889C59.3389 36.58 61.2889 35.748 61.2889 33.33C61.2889 30.964 59.2609 30.028 57.2849 30.028H53.4889ZM65.6626 46.876V28.468H67.3786V46.876H65.6626ZM75.4585 46.876V30.028H69.1665V28.468H83.4665V30.028H77.1745V46.876H75.4585ZM81.0968 46.876L89.1308 28.468H90.8988L98.6468 46.876H96.7228L94.7208 41.988H84.9708L82.8908 46.876H81.0968ZM94.0968 40.428L89.9368 30.34L85.6468 40.428H94.0968ZM100.248 46.876V28.468H101.964V45.316H110.544V46.876H100.248ZM112.208 46.876V28.468H113.924V46.876H112.208ZM122.004 46.876V30.028H115.712V28.468H130.012V30.028H123.72V46.876H122.004ZM135.893 46.876V38.946L129.133 28.468H131.187L136.751 37.204L142.445 28.468H144.369L137.609 38.946V46.876H135.893Z" fill="#ECECEC"/>
</svg>
