<svg width="60" height="60" viewBox="0 0 60 60" fill="none" xmlns="http://www.w3.org/2000/svg">
<rect x="0.25" y="0.25" width="59.5" height="59.5" rx="29.75" stroke="#CACACA" stroke-width="0.5"/>
<path d="M24.5334 36.4659L17.6472 33.9284C17.4573 33.8583 17.2935 33.7317 17.1778 33.5657C17.062 33.3996 17 33.2021 17 32.9997C17 32.7973 17.062 32.5997 17.1778 32.4337C17.2935 32.2676 17.4573 32.141 17.6472 32.0709L24.5334 29.5334L27.0709 22.6472C27.141 22.4573 27.2676 22.2935 27.4337 22.1778C27.5997 22.062 27.7973 22 27.9997 22C28.2021 22 28.3996 22.062 28.5657 22.1778C28.7317 22.2935 28.8583 22.4573 28.9284 22.6472L31.4659 29.5334L38.3522 32.0709C38.5421 32.141 38.7059 32.2676 38.8216 32.4337C38.9373 32.5997 38.9994 32.7973 38.9994 32.9997C38.9994 33.2021 38.9373 33.3996 38.8216 33.5657C38.7059 33.7317 38.5421 33.8583 38.3522 33.9284L31.4659 36.4659L28.9284 43.3522C28.8583 43.5421 28.7317 43.7059 28.5657 43.8216C28.3996 43.9373 28.2021 43.9994 27.9997 43.9994C27.7973 43.9994 27.5997 43.9373 27.4337 43.8216C27.2676 43.7059 27.141 43.5421 27.0709 43.3522L24.5334 36.4659Z" stroke="black" stroke-width="1.5" stroke-linecap="round" stroke-linejoin="round"/>
<path d="M36 17V23" stroke="black" stroke-width="1.5" stroke-linecap="round" stroke-linejoin="round"/>
<path d="M42 24V28" stroke="black" stroke-width="1.5" stroke-linecap="round" stroke-linejoin="round"/>
<path d="M33 20H39" stroke="black" stroke-width="1.5" stroke-linecap="round" stroke-linejoin="round"/>
<path d="M40 26H44" stroke="black" stroke-width="1.5" stroke-linecap="round" stroke-linejoin="round"/>
</svg>
