<svg width="30" height="30" viewBox="0 0 30 30" fill="none" xmlns="http://www.w3.org/2000/svg">
<g clip-path="url(#clip0_672_144)">
<rect width="30" height="30" rx="15" fill="#DDF34F"/>
<path d="M23.3558 22.5209C23.3019 22.6141 23.2245 22.6915 23.1313 22.7454C23.0381 22.7992 22.9324 22.8275 22.8247 22.8274H8.11239C8.00483 22.8273 7.8992 22.7989 7.8061 22.7451C7.713 22.6912 7.6357 22.6138 7.58197 22.5207C7.52824 22.4275 7.49997 22.3218 7.5 22.2143C7.50003 22.1067 7.52835 22.0011 7.58213 21.9079C8.74915 19.8903 10.5476 18.4436 12.6464 17.7578C11.6082 17.1398 10.8016 16.1981 10.3505 15.0773C9.89934 13.9564 9.82858 12.7185 10.1491 11.5536C10.4696 10.3887 11.1636 9.3612 12.1246 8.6289C13.0856 7.8966 14.2604 7.5 15.4686 7.5C16.6768 7.5 17.8516 7.8966 18.8125 8.6289C19.7735 9.3612 20.4675 10.3887 20.788 11.5536C21.1085 12.7185 21.0378 13.9564 20.5866 15.0773C20.1355 16.1981 19.3289 17.1398 18.2907 17.7578C20.3895 18.4436 22.188 19.8903 23.355 21.9079C23.4089 22.001 23.4374 22.1067 23.4375 22.2143C23.4376 22.3219 23.4094 22.4277 23.3558 22.5209Z" fill="white"/>
</g>
<defs>
<clipPath id="clip0_672_144">
<rect width="30" height="30" rx="15" fill="white"/>
</clipPath>
</defs>
</svg>
