<svg width="40" height="40" viewBox="0 0 40 40" fill="none" xmlns="http://www.w3.org/2000/svg">
<circle cx="20" cy="20" r="19.75" fill="black" stroke="#D3D3D3" stroke-width="0.5"/>
<path d="M20 0.25C25.2363 0.255598 30.2564 2.33838 33.959 6.04102C37.6616 9.74365 39.7444 14.7637 39.75 20L39.7363 20.7314C39.6011 24.3814 38.4563 27.9278 36.4219 30.9727C34.2517 34.2205 31.1665 36.7522 27.5576 38.2471C23.9489 39.7417 19.9774 40.1321 16.1465 39.3701C12.3156 38.608 8.79614 36.7278 6.03418 33.9658C3.27222 31.2039 1.39201 27.6844 0.629883 23.8535C-0.132141 20.0226 0.258267 16.0511 1.75293 12.4424C3.24776 8.83354 5.77947 5.74828 9.02734 3.57812C12.0722 1.54366 15.6186 0.398908 19.2686 0.263672L20 0.25ZM16.9229 12.0576C16.4487 12.0577 15.9935 12.2458 15.6582 12.5811C15.3229 12.9163 15.1349 13.3715 15.1348 13.8457C15.1348 14.3199 15.323 14.775 15.6582 15.1104C15.9935 15.4457 16.4486 15.6347 16.9229 15.6348H21.8369L12.5811 24.8887C12.415 25.0547 12.2833 25.2518 12.1934 25.4688C12.1034 25.6858 12.0566 25.9193 12.0566 26.1543C12.0567 26.3891 12.1035 26.6219 12.1934 26.8389C12.2833 27.0558 12.415 27.2529 12.5811 27.4189C12.7471 27.585 12.9442 27.7167 13.1611 27.8066C13.3781 27.8965 13.6109 27.9433 13.8457 27.9434C14.0807 27.9434 14.3142 27.8966 14.5312 27.8066C14.7482 27.7167 14.9453 27.585 15.1113 27.4189L24.3652 18.1631V23.0771C24.3653 23.5514 24.5543 24.0064 24.8896 24.3418C25.225 24.677 25.6801 24.8652 26.1543 24.8652C26.6285 24.8651 27.0836 24.6771 27.4189 24.3418C27.7542 24.0065 27.9423 23.5513 27.9424 23.0771V13.8457C27.9423 13.3715 27.7542 12.9164 27.4189 12.5811C27.0836 12.2458 26.6285 12.0577 26.1543 12.0576H16.9229Z" fill="white" stroke="#D3D3D3" stroke-width="0.5"/>
</svg>
