<svg width="24" height="24" viewBox="0 0 24 24" fill="none" xmlns="http://www.w3.org/2000/svg">
<rect x="0.5" y="0.5" width="23" height="23" rx="11.5" stroke="url(#paint0_linear_788_437)"/>
<path d="M12.0909 15.3636C12.1718 15.3636 12.2509 15.3396 12.3182 15.2947C12.3855 15.2497 12.4379 15.1858 12.4689 15.1111C12.4998 15.0363 12.5079 14.9541 12.4921 14.8747C12.4764 14.7954 12.4374 14.7225 12.3802 14.6653C12.323 14.6081 12.2501 14.5691 12.1707 14.5533C12.0914 14.5375 12.0091 14.5456 11.9344 14.5766C11.8596 14.6076 11.7957 14.66 11.7508 14.7273C11.7058 14.7945 11.6818 14.8736 11.6818 14.9545C11.6818 15.063 11.7249 15.1671 11.8016 15.2438C11.8784 15.3205 11.9824 15.3636 12.0909 15.3636ZM14.1364 15.3636C14.2173 15.3636 14.2964 15.3396 14.3636 15.2947C14.4309 15.2497 14.4834 15.1858 14.5143 15.1111C14.5453 15.0363 14.5534 14.9541 14.5376 14.8747C14.5218 14.7954 14.4828 14.7225 14.4256 14.6653C14.3684 14.6081 14.2955 14.5691 14.2162 14.5533C14.1368 14.5375 14.0546 14.5456 13.9798 14.5766C13.9051 14.6076 13.8412 14.66 13.7962 14.7273C13.7513 14.7945 13.7273 14.8736 13.7273 14.9545C13.7273 15.063 13.7704 15.1671 13.8471 15.2438C13.9238 15.3205 14.0279 15.3636 14.1364 15.3636ZM14.1364 13.7273C14.2173 13.7273 14.2964 13.7033 14.3636 13.6583C14.4309 13.6134 14.4834 13.5495 14.5143 13.4747C14.5453 13.4 14.5534 13.3177 14.5376 13.2384C14.5218 13.159 14.4828 13.0861 14.4256 13.0289C14.3684 12.9717 14.2955 12.9327 14.2162 12.917C14.1368 12.9012 14.0546 12.9093 13.9798 12.9402C13.9051 12.9712 13.8412 13.0236 13.7962 13.0909C13.7513 13.1582 13.7273 13.2373 13.7273 13.3182C13.7273 13.4267 13.7704 13.5307 13.8471 13.6075C13.9238 13.6842 14.0279 13.7273 14.1364 13.7273ZM12.0909 13.7273C12.1718 13.7273 12.2509 13.7033 12.3182 13.6583C12.3855 13.6134 12.4379 13.5495 12.4689 13.4747C12.4998 13.4 12.5079 13.3177 12.4921 13.2384C12.4764 13.159 12.4374 13.0861 12.3802 13.0289C12.323 12.9717 12.2501 12.9327 12.1707 12.917C12.0914 12.9012 12.0091 12.9093 11.9344 12.9402C11.8596 12.9712 11.7957 13.0236 11.7508 13.0909C11.7058 13.1582 11.6818 13.2373 11.6818 13.3182C11.6818 13.4267 11.7249 13.5307 11.8016 13.6075C11.8784 13.6842 11.9824 13.7273 12.0909 13.7273ZM14.9545 8.81818H14.5455V8.40909C14.5455 8.30059 14.5024 8.19654 14.4256 8.11982C14.3489 8.0431 14.2449 8 14.1364 8C14.0279 8 13.9238 8.0431 13.8471 8.11982C13.7704 8.19654 13.7273 8.30059 13.7273 8.40909V8.81818H10.4545V8.40909C10.4545 8.30059 10.4114 8.19654 10.3347 8.11982C10.258 8.0431 10.154 8 10.0455 8C9.93696 8 9.8329 8.0431 9.75618 8.11982C9.67946 8.19654 9.63636 8.30059 9.63636 8.40909V8.81818H9.22727C8.90178 8.81818 8.58962 8.94748 8.35946 9.17764C8.1293 9.4078 8 9.71996 8 10.0455V15.7727C8 16.0982 8.1293 16.4104 8.35946 16.6405C8.58962 16.8707 8.90178 17 9.22727 17H14.9545C15.28 17 15.5922 16.8707 15.8224 16.6405C16.0525 16.4104 16.1818 16.0982 16.1818 15.7727V10.0455C16.1818 9.71996 16.0525 9.4078 15.8224 9.17764C15.5922 8.94748 15.28 8.81818 14.9545 8.81818ZM15.3636 15.7727C15.3636 15.8812 15.3205 15.9853 15.2438 16.062C15.1671 16.1387 15.063 16.1818 14.9545 16.1818H9.22727C9.11878 16.1818 9.01472 16.1387 8.938 16.062C8.86128 15.9853 8.81818 15.8812 8.81818 15.7727V12.0909H15.3636V15.7727ZM15.3636 11.2727H8.81818V10.0455C8.81818 9.93696 8.86128 9.8329 8.938 9.75618C9.01472 9.67946 9.11878 9.63636 9.22727 9.63636H9.63636V10.0455C9.63636 10.154 9.67946 10.258 9.75618 10.3347C9.8329 10.4114 9.93696 10.4545 10.0455 10.4545C10.154 10.4545 10.258 10.4114 10.3347 10.3347C10.4114 10.258 10.4545 10.154 10.4545 10.0455V9.63636H13.7273V10.0455C13.7273 10.154 13.7704 10.258 13.8471 10.3347C13.9238 10.4114 14.0279 10.4545 14.1364 10.4545C14.2449 10.4545 14.3489 10.4114 14.4256 10.3347C14.5024 10.258 14.5455 10.154 14.5455 10.0455V9.63636H14.9545C15.063 9.63636 15.1671 9.67946 15.2438 9.75618C15.3205 9.8329 15.3636 9.93696 15.3636 10.0455V11.2727ZM10.0455 13.7273C10.1264 13.7273 10.2055 13.7033 10.2727 13.6583C10.34 13.6134 10.3924 13.5495 10.4234 13.4747C10.4544 13.4 10.4625 13.3177 10.4467 13.2384C10.4309 13.159 10.3919 13.0861 10.3347 13.0289C10.2775 12.9717 10.2046 12.9327 10.1253 12.917C10.0459 12.9012 9.96365 12.9093 9.8889 12.9402C9.81415 12.9712 9.75026 13.0236 9.70531 13.0909C9.66036 13.1582 9.63636 13.2373 9.63636 13.3182C9.63636 13.4267 9.67946 13.5307 9.75618 13.6075C9.8329 13.6842 9.93696 13.7273 10.0455 13.7273ZM10.0455 15.3636C10.1264 15.3636 10.2055 15.3396 10.2727 15.2947C10.34 15.2497 10.3924 15.1858 10.4234 15.1111C10.4544 15.0363 10.4625 14.9541 10.4467 14.8747C10.4309 14.7954 10.3919 14.7225 10.3347 14.6653C10.2775 14.6081 10.2046 14.5691 10.1253 14.5533C10.0459 14.5375 9.96365 14.5456 9.8889 14.5766C9.81415 14.6076 9.75026 14.66 9.70531 14.7273C9.66036 14.7945 9.63636 14.8736 9.63636 14.9545C9.63636 15.063 9.67946 15.1671 9.75618 15.2438C9.8329 15.3205 9.93696 15.3636 10.0455 15.3636Z" fill="#1841AA"/>
<defs>
<linearGradient id="paint0_linear_788_437" x1="12" y1="0" x2="12" y2="24" gradientUnits="userSpaceOnUse">
<stop stop-color="#3C64A1"/>
<stop offset="1" stop-color="#6FC1D7"/>
</linearGradient>
</defs>
</svg>
