<svg width="32" height="32" viewBox="0 0 32 32" fill="none" xmlns="http://www.w3.org/2000/svg">
<g clip-path="url(#clip0_3018_8292)">
<rect width="32" height="32" rx="16" fill="#8CC2E6"/>
<path d="M19.5047 18.2509C19.6262 18.1701 19.766 18.1208 19.9113 18.1076C20.0566 18.0944 20.203 18.1176 20.3371 18.1753L25.509 20.4925C25.6832 20.567 25.8287 20.696 25.9236 20.86C26.0185 21.0241 26.0577 21.2145 26.0354 21.4027C25.865 22.676 25.2379 23.8441 24.2709 24.6897C23.3038 25.5353 22.0626 26.001 20.7779 26C16.8223 26 13.0287 24.4286 10.2317 21.6316C7.43464 18.8345 5.86328 15.0409 5.86328 11.0853C5.8623 9.80069 6.32792 8.55942 7.17354 7.59237C8.01916 6.62531 9.18722 5.99828 10.4605 5.8279C10.6487 5.80554 10.8391 5.84474 11.0032 5.93964C11.1673 6.03453 11.2962 6.18001 11.3707 6.3543L13.688 11.5306C13.7449 11.6635 13.7681 11.8085 13.7555 11.9525C13.7429 12.0966 13.6948 12.2353 13.6156 12.3564L11.272 15.143C11.1889 15.2684 11.1397 15.4133 11.1294 15.5634C11.119 15.7135 11.1477 15.8638 11.2128 15.9995C12.1198 17.8561 14.0389 19.7523 15.9011 20.6504C16.0375 20.7152 16.1884 20.7433 16.339 20.732C16.4896 20.7206 16.6346 20.6702 16.7598 20.5857L19.5047 18.2509Z" stroke="white" stroke-width="1.75467" stroke-linecap="round" stroke-linejoin="round"/>
</g>
<defs>
<clipPath id="clip0_3018_8292">
<rect width="32" height="32" rx="16" fill="white"/>
</clipPath>
</defs>
</svg>
