<svg width="116" height="20" viewBox="0 0 116 20" fill="none" xmlns="http://www.w3.org/2000/svg">
<path d="M19.4197 8.79552L15.4152 12.251L16.6353 17.4185C16.7026 17.6991 16.6853 17.9932 16.5855 18.2639C16.4857 18.5346 16.3079 18.7696 16.0746 18.9393C15.8413 19.109 15.5629 19.2057 15.2747 19.2173C14.9864 19.2289 14.7012 19.1548 14.4551 19.0043L9.96112 16.2385L5.46452 19.0043C5.2184 19.1539 4.93353 19.2273 4.64577 19.2153C4.35801 19.2033 4.08024 19.1065 3.84742 18.9369C3.6146 18.7674 3.43716 18.5327 3.33743 18.2625C3.2377 17.9923 3.22014 17.6987 3.28697 17.4185L4.51145 12.251L0.506958 8.79552C0.289201 8.60732 0.131715 8.35914 0.0541676 8.08197C-0.0233794 7.80479 -0.0175504 7.51092 0.0709265 7.23704C0.159403 6.96316 0.326607 6.72141 0.551656 6.54199C0.776705 6.36257 1.04963 6.25343 1.33633 6.2282L6.58667 5.80461L8.61205 0.903112C8.72168 0.635983 8.90827 0.407488 9.1481 0.246676C9.38792 0.0858642 9.67015 0 9.9589 0C10.2476 0 10.5299 0.0858642 10.7697 0.246676C11.0095 0.407488 11.1961 0.635983 11.3057 0.903112L13.3302 5.80461L18.5806 6.2282C18.8678 6.2525 19.1416 6.36103 19.3674 6.5402C19.5933 6.71937 19.7613 6.96121 19.8503 7.23542C19.9393 7.50963 19.9455 7.80402 19.8679 8.0817C19.7904 8.35938 19.6326 8.608 19.4144 8.79641L19.4197 8.79552Z" fill="#F5BD1E" fill-opacity="0.77"/>
<path d="M43.3416 8.79552L39.3371 12.251L40.5572 17.4185C40.6245 17.6991 40.6071 17.9932 40.5073 18.2639C40.4075 18.5346 40.2298 18.7696 39.9965 18.9393C39.7632 19.109 39.4848 19.2057 39.1966 19.2173C38.9083 19.2289 38.6231 19.1548 38.3769 19.0043L33.883 16.2385L29.3864 19.0043C29.1403 19.1539 28.8554 19.2273 28.5676 19.2153C28.2799 19.2033 28.0021 19.1065 27.7693 18.9369C27.5365 18.7674 27.359 18.5327 27.2593 18.2625C27.1596 17.9923 27.142 17.6987 27.2088 17.4185L28.4333 12.251L24.4288 8.79552C24.2111 8.60732 24.0536 8.35914 23.976 8.08197C23.8985 7.80479 23.9043 7.51092 23.9928 7.23704C24.0813 6.96316 24.2485 6.72141 24.4735 6.54199C24.6986 6.36257 24.9715 6.25343 25.2582 6.2282L30.5085 5.80461L32.5339 0.903112C32.6436 0.635983 32.8301 0.407488 33.07 0.246676C33.3098 0.0858642 33.592 0 33.8808 0C34.1695 0 34.4518 0.0858642 34.6916 0.246676C34.9314 0.407488 35.118 0.635983 35.2276 0.903112L37.2521 5.80461L42.5024 6.2282C42.7897 6.2525 43.0634 6.36103 43.2893 6.5402C43.5152 6.71937 43.6831 6.96121 43.7722 7.23542C43.8612 7.50963 43.8673 7.80402 43.7898 8.0817C43.7122 8.35938 43.5545 8.608 43.3363 8.79641L43.3416 8.79552Z" fill="#F5BD1E" fill-opacity="0.77"/>
<path d="M67.2635 8.79552L63.259 12.251L64.479 17.4185C64.5463 17.6991 64.529 17.9932 64.4292 18.2639C64.3294 18.5346 64.1516 18.7696 63.9183 18.9393C63.685 19.109 63.4067 19.2057 63.1184 19.2173C62.8302 19.2289 62.545 19.1548 62.2988 19.0043L57.8049 16.2385L53.3083 19.0043C53.0622 19.1539 52.7773 19.2273 52.4895 19.2153C52.2018 19.2033 51.924 19.1065 51.6912 18.9369C51.4584 18.7674 51.2809 18.5327 51.1812 18.2625C51.0814 17.9923 51.0639 17.6987 51.1307 17.4185L52.3552 12.251L48.3507 8.79552C48.133 8.60732 47.9755 8.35914 47.8979 8.08197C47.8204 7.80479 47.8262 7.51092 47.9147 7.23704C48.0032 6.96316 48.1704 6.72141 48.3954 6.54199C48.6205 6.36257 48.8934 6.25343 49.1801 6.2282L54.4304 5.80461L56.4558 0.903112C56.5654 0.635983 56.752 0.407488 56.9918 0.246676C57.2317 0.0858642 57.5139 0 57.8026 0C58.0914 0 58.3736 0.0858642 58.6135 0.246676C58.8533 0.407488 59.0399 0.635983 59.1495 0.903112L61.174 5.80461L66.4243 6.2282C66.7116 6.2525 66.9853 6.36103 67.2112 6.5402C67.4371 6.71937 67.605 6.96121 67.6941 7.23542C67.7831 7.50963 67.7892 7.80402 67.7117 8.0817C67.6341 8.35938 67.4764 8.608 67.2581 8.79641L67.2635 8.79552Z" fill="#F5BD1E" fill-opacity="0.77"/>
<path d="M91.1854 8.79552L87.1809 12.251L88.4009 17.4185C88.4682 17.6991 88.4509 17.9932 88.3511 18.2639C88.2513 18.5346 88.0735 18.7696 87.8402 18.9393C87.6069 19.109 87.3286 19.2057 87.0403 19.2173C86.752 19.2289 86.4668 19.1548 86.2207 19.0043L81.7267 16.2385L77.2301 19.0043C76.984 19.1539 76.6992 19.2273 76.4114 19.2153C76.1236 19.2033 75.8459 19.1065 75.613 18.9369C75.3802 18.7674 75.2028 18.5327 75.1031 18.2625C75.0033 17.9923 74.9858 17.6987 75.0526 17.4185L76.2771 12.251L72.2726 8.79552C72.0548 8.60732 71.8973 8.35914 71.8198 8.08197C71.7422 7.80479 71.7481 7.51092 71.8366 7.23704C71.925 6.96316 72.0922 6.72141 72.3173 6.54199C72.5423 6.36257 72.8153 6.25343 73.102 6.2282L78.3523 5.80461L80.3777 0.903112C80.4873 0.635983 80.6739 0.407488 80.9137 0.246676C81.1535 0.0858642 81.4358 0 81.7245 0C82.0133 0 82.2955 0.0858642 82.5353 0.246676C82.7751 0.407488 82.9617 0.635983 83.0714 0.903112L85.0959 5.80461L90.3462 6.2282C90.6335 6.2525 90.9072 6.36103 91.1331 6.5402C91.3589 6.71937 91.5269 6.96121 91.6159 7.23542C91.705 7.50963 91.7111 7.80402 91.6335 8.0817C91.556 8.35938 91.3982 8.608 91.18 8.79641L91.1854 8.79552Z" fill="#F5BD1E" fill-opacity="0.77"/>
<path d="M115.107 8.79552L111.103 12.251L112.323 17.4185C112.39 17.6991 112.373 17.9932 112.273 18.2639C112.173 18.5346 111.995 18.7696 111.762 18.9393C111.529 19.109 111.25 19.2057 110.962 19.2173C110.674 19.2289 110.389 19.1548 110.143 19.0043L105.649 16.2385L101.152 19.0043C100.906 19.1539 100.621 19.2273 100.333 19.2153C100.046 19.2033 99.7677 19.1065 99.5349 18.9369C99.3021 18.7674 99.1247 18.5327 99.0249 18.2625C98.9252 17.9923 98.9076 17.6987 98.9745 17.4185L100.199 12.251L96.1945 8.79552C95.9767 8.60732 95.8192 8.35914 95.7417 8.08197C95.6641 7.80479 95.6699 7.51092 95.7584 7.23704C95.8469 6.96316 96.0141 6.72141 96.2392 6.54199C96.4642 6.36257 96.7371 6.25343 97.0238 6.2282L102.274 5.80461L104.3 0.903112C104.409 0.635983 104.596 0.407488 104.836 0.246676C105.075 0.0858642 105.358 0 105.646 0C105.935 0 106.217 0.0858642 106.457 0.246676C106.697 0.407488 106.884 0.635983 106.993 0.903112L109.018 5.80461L114.268 6.2282C114.555 6.2525 114.829 6.36103 115.055 6.5402C115.281 6.71937 115.449 6.96121 115.538 7.23542C115.627 7.50963 115.633 7.80402 115.555 8.0817C115.478 8.35938 115.32 8.608 115.102 8.79641L115.107 8.79552Z" fill="#F5BD1E" fill-opacity="0.77"/>
</svg>
