<svg width="22" height="22" viewBox="0 0 22 22" fill="none" xmlns="http://www.w3.org/2000/svg">
<g clip-path="url(#clip0_511_663)">
<path d="M2.64453 5.28882V11.8998" stroke="black" stroke-width="1.5" stroke-linecap="round" stroke-linejoin="round"/>
<path d="M4.62891 17.8497C5.92631 15.8598 8.02611 14.5442 10.5788 14.5442C13.1314 14.5442 15.2312 15.8598 16.5286 17.8497" stroke="black" stroke-width="1.5" stroke-linecap="round" stroke-linejoin="round"/>
<path d="M18.5108 5.28867L10.5777 7.93305L2.64453 5.28867L10.5777 2.64429L18.5108 5.28867Z" stroke="black" stroke-width="1.5" stroke-linecap="round" stroke-linejoin="round"/>
<path d="M13.9931 6.79443C14.5985 7.457 14.9982 8.28134 15.1435 9.16703C15.2888 10.0527 15.1734 10.9616 14.8114 11.7828C14.4493 12.6041 13.8562 13.3023 13.1044 13.7926C12.3526 14.2828 11.4744 14.5438 10.5769 14.5438C9.67936 14.5438 8.8012 14.2828 8.04936 13.7926C7.29753 13.3023 6.70447 12.6041 6.34243 11.7828C5.98038 10.9616 5.86497 10.0527 6.01025 9.16703C6.15553 8.28134 6.55524 7.457 7.16068 6.79443" stroke="black" stroke-width="1.5" stroke-linecap="round" stroke-linejoin="round"/>
</g>
<defs>
<clipPath id="clip0_511_663">
<rect width="21.1551" height="21.1551" fill="white"/>
</clipPath>
</defs>
</svg>
