<svg width="28" height="28" viewBox="0 0 28 28" fill="none" xmlns="http://www.w3.org/2000/svg">
<rect x="0.25" y="0.25" width="27.5" height="27.5" rx="13.75" stroke="url(#paint0_linear_788_390)" stroke-width="0.5"/>
<circle cx="2.26139" cy="2.26139" r="2.26139" transform="matrix(-1 0 0 1 16.0449 9)" stroke="#2F4B9E" stroke-width="0.996427"/>
<path d="M9.82617 16.878C9.82617 16.3916 10.1319 15.9577 10.59 15.7941C12.6552 15.0566 14.912 15.0566 16.9772 15.7941C17.4353 15.9577 17.7411 16.3916 17.7411 16.878V17.6217C17.7411 18.2931 17.1465 18.8087 16.4819 18.7138L16.2603 18.6821C14.6175 18.4475 12.9497 18.4475 11.3069 18.6821L11.0853 18.7138C10.4208 18.8087 9.82617 18.2931 9.82617 17.6217V16.878Z" stroke="#2F4B9E" stroke-width="0.996427"/>
<path d="M17.1744 13.5854C18.1557 13.5854 18.9512 12.7899 18.9512 11.8085C18.9512 10.8272 18.1557 10.0317 17.1744 10.0317" stroke="#2F4B9E" stroke-width="0.996427" stroke-linecap="round"/>
<path d="M19.1205 17.639L19.2946 17.6639C19.8168 17.7385 20.2839 17.3333 20.2839 16.8058V16.2215C20.2839 15.8393 20.0437 15.4984 19.6838 15.3699C19.3248 15.2416 18.9584 15.1418 18.5879 15.0703" stroke="#2F4B9E" stroke-width="0.996427" stroke-linecap="round"/>
<path d="M10.1088 13.5854C9.12754 13.5854 8.33203 12.7899 8.33203 11.8085C8.33203 10.8272 9.12754 10.0317 10.1088 10.0317" stroke="#2F4B9E" stroke-width="0.996427" stroke-linecap="round"/>
<path d="M8.16269 17.639L7.9886 17.6639C7.46644 17.7385 6.99927 17.3333 6.99927 16.8058V16.2215C6.99927 15.8393 7.23952 15.4984 7.59942 15.3699C7.95844 15.2416 8.32482 15.1418 8.69531 15.0703" stroke="#2F4B9E" stroke-width="0.996427" stroke-linecap="round"/>
<defs>
<linearGradient id="paint0_linear_788_390" x1="14" y1="0" x2="14" y2="28" gradientUnits="userSpaceOnUse">
<stop stop-color="#2F55A0"/>
<stop offset="1" stop-color="#69BACD"/>
</linearGradient>
</defs>
</svg>
