<svg width="34" height="34" viewBox="0 0 34 34" fill="none" xmlns="http://www.w3.org/2000/svg">
<path d="M19.5088 16.2969C19.5088 16.9326 19.3203 17.5541 18.9671 18.0827C18.6139 18.6113 18.1119 19.0233 17.5245 19.2666C16.9372 19.5099 16.2909 19.5735 15.6673 19.4495C15.0438 19.3255 14.4711 19.0193 14.0215 18.5698C13.572 18.1203 13.2658 17.5475 13.1418 16.924C13.0178 16.3004 13.0814 15.6541 13.3247 15.0668C13.568 14.4794 13.98 13.9774 14.5086 13.6242C15.0372 13.271 15.6587 13.0825 16.2944 13.0825C17.1469 13.0825 17.9645 13.4211 18.5674 14.024C19.1702 14.6268 19.5088 15.4444 19.5088 16.2969ZM26.7412 11.4753V21.1185C26.7396 22.6099 26.1465 24.0397 25.0919 25.0943C24.0373 26.1489 22.6074 26.7421 21.116 26.7437H11.4728C9.98144 26.7421 8.55158 26.1489 7.497 25.0943C6.44242 24.0397 5.84925 22.6099 5.84766 21.1185V11.4753C5.84925 9.98388 6.44242 8.55402 7.497 7.49944C8.55158 6.44486 9.98144 5.85169 11.4728 5.8501H21.116C22.6074 5.85169 24.0373 6.44486 25.0919 7.49944C26.1465 8.55402 26.7396 9.98388 26.7412 11.4753ZM21.116 16.2969C21.116 15.3433 20.8332 14.4111 20.3034 13.6181C19.7736 12.8252 19.0206 12.2072 18.1396 11.8423C17.2585 11.4774 16.2891 11.3819 15.3538 11.5679C14.4185 11.754 13.5594 12.2132 12.8851 12.8875C12.2107 13.5618 11.7515 14.4209 11.5655 15.3562C11.3794 16.2915 11.4749 17.261 11.8399 18.142C12.2048 19.0231 12.8228 19.7761 13.6157 20.3059C14.4086 20.8357 15.3408 21.1185 16.2944 21.1185C17.5728 21.1171 18.7984 20.6087 19.7023 19.7048C20.6063 18.8009 21.1147 17.5752 21.116 16.2969ZM23.5268 10.2699C23.5268 10.0315 23.4561 9.79843 23.3237 9.60021C23.1912 9.40198 23.003 9.24748 22.7827 9.15625C22.5625 9.06501 22.3201 9.04114 22.0863 9.08765C21.8524 9.13416 21.6377 9.24897 21.4691 9.41754C21.3005 9.58612 21.1857 9.8009 21.1392 10.0347C21.0927 10.2686 21.1166 10.5109 21.2078 10.7312C21.299 10.9514 21.4535 11.1397 21.6517 11.2721C21.85 11.4046 22.083 11.4753 22.3214 11.4753C22.6411 11.4753 22.9477 11.3483 23.1738 11.1222C23.3998 10.8962 23.5268 10.5896 23.5268 10.2699Z" fill="#004A79"/>
<circle cx="16.7148" cy="16.7148" r="16.297" stroke="#004A79" stroke-width="0.835743"/>
</svg>
