<svg width="158" height="28" viewBox="0 0 158 28" fill="none" xmlns="http://www.w3.org/2000/svg">
<path d="M0.000355065 27.4474V1.26563H10.0231C11.9151 1.26563 13.4876 1.56393 14.7404 2.16052C16.0018 2.74858 16.9435 3.55398 17.5657 4.57671C18.1964 5.59944 18.5117 6.75853 18.5117 8.05398C18.5117 9.11932 18.3072 10.0313 17.8981 10.7898C17.489 11.5398 16.9393 12.1492 16.2489 12.6179C15.5586 13.0867 14.7873 13.4233 13.935 13.6278V13.8835C14.864 13.9347 15.7546 14.2202 16.6069 14.7401C17.4677 15.2514 18.1708 15.9759 18.7163 16.9134C19.2617 17.8509 19.5344 18.9844 19.5344 20.3139C19.5344 21.669 19.2063 22.8878 18.5501 23.9702C17.8938 25.044 16.9052 25.8921 15.5842 26.5142C14.2631 27.1364 12.6012 27.4474 10.5984 27.4474H0.000355065ZM4.74325 23.4844H9.84411C11.5657 23.4844 12.8058 23.1563 13.5643 22.5C14.3313 21.8352 14.7148 20.983 14.7148 19.9432C14.7148 19.1676 14.5231 18.4688 14.1396 17.8466C13.756 17.2159 13.2106 16.7216 12.5032 16.3636C11.7958 15.9972 10.9521 15.8139 9.97195 15.8139H4.74325V23.4844ZM4.74325 12.4006H9.43502C10.2532 12.4006 10.9904 12.2514 11.6467 11.9531C12.3029 11.6463 12.8185 11.2159 13.1935 10.6619C13.5771 10.0994 13.7688 9.43466 13.7688 8.66762C13.7688 7.65341 13.4109 6.81819 12.695 6.16194C11.9876 5.50569 10.935 5.17756 9.53729 5.17756H4.74325V12.4006ZM20.216 27.4474V7.81108H24.7032V11.0838H24.9077C25.2657 9.95029 25.8793 9.07671 26.7486 8.46307C27.6265 7.84091 28.6279 7.52983 29.7529 7.52983C30.0086 7.52983 30.2941 7.54262 30.6094 7.56819C30.9333 7.58523 31.2018 7.61506 31.4148 7.65768V11.9148C31.2188 11.8466 30.9077 11.7869 30.4816 11.7358C30.064 11.6761 29.6591 11.6463 29.2671 11.6463C28.4234 11.6463 27.6648 11.8296 26.9915 12.196C26.3268 12.554 25.8026 13.0526 25.4191 13.6918C25.0356 14.331 24.8438 15.0682 24.8438 15.9034V27.4474H20.216ZM39.0062 27.831C37.0885 27.831 35.4266 27.4091 34.0204 26.5653C32.6141 25.7216 31.5232 24.5412 30.7476 23.0242C29.9806 21.5071 29.5971 19.7344 29.5971 17.706C29.5971 15.6776 29.9806 13.9006 30.7476 12.375C31.5232 10.8494 32.6141 9.66478 34.0204 8.82103C35.4266 7.97728 37.0885 7.5554 39.0062 7.5554C40.9238 7.5554 42.5857 7.97728 43.9919 8.82103C45.3982 9.66478 46.4848 10.8494 47.2519 12.375C48.0275 13.9006 48.4152 15.6776 48.4152 17.706C48.4152 19.7344 48.0275 21.5071 47.2519 23.0242C46.4848 24.5412 45.3982 25.7216 43.9919 26.5653C42.5857 27.4091 40.9238 27.831 39.0062 27.831ZM39.0317 24.1236C40.0715 24.1236 40.9408 23.8381 41.6397 23.2671C42.3385 22.6875 42.8584 21.9119 43.1993 20.9403C43.5488 19.9688 43.7235 18.8864 43.7235 17.6932C43.7235 16.4915 43.5488 15.4048 43.1993 14.4332C42.8584 13.4531 42.3385 12.6733 41.6397 12.0938C40.9408 11.5142 40.0715 11.2244 39.0317 11.2244C37.9664 11.2244 37.08 11.5142 36.3726 12.0938C35.6738 12.6733 35.1496 13.4531 34.8002 14.4332C34.4593 15.4048 34.2888 16.4915 34.2888 17.6932C34.2888 18.8864 34.4593 19.9688 34.8002 20.9403C35.1496 21.9119 35.6738 22.6875 36.3726 23.2671C37.08 23.8381 37.9664 24.1236 39.0317 24.1236ZM49.1032 27.4474V7.81108H53.5264V11.1477H53.7566C54.1657 10.0227 54.8432 9.14489 55.7892 8.51421C56.7353 7.87501 57.8645 7.5554 59.177 7.5554C60.5066 7.5554 61.6273 7.87927 62.5392 8.52699C63.4597 9.1662 64.1074 10.0398 64.4824 11.1477H64.687C65.1216 10.0568 65.8546 9.18751 66.8858 8.53978C67.9256 7.88353 69.1571 7.5554 70.5804 7.5554C72.3872 7.5554 73.8617 8.12643 75.0037 9.26847C76.1458 10.4105 76.7168 12.0767 76.7168 14.2671V27.4474H72.0762V14.983C72.0762 13.7642 71.7523 12.8736 71.1046 12.3111C70.4568 11.7401 69.6642 11.4546 68.7267 11.4546C67.6103 11.4546 66.7367 11.804 66.106 12.5028C65.4838 13.1932 65.1728 14.0923 65.1728 15.2003V27.4474H60.6344V14.7912C60.6344 13.777 60.3276 12.9673 59.7139 12.3622C59.1088 11.7571 58.3162 11.4546 57.3361 11.4546C56.6713 11.4546 56.0662 11.625 55.5208 11.9659C54.9753 12.2983 54.5407 12.7713 54.2168 13.3849C53.8929 13.9901 53.731 14.6974 53.731 15.5071V27.4474H49.1032ZM86.7371 27.831C84.8195 27.831 83.1575 27.4091 81.7513 26.5653C80.345 25.7216 79.2541 24.5412 78.4786 23.0242C77.7115 21.5071 77.328 19.7344 77.328 17.706C77.328 15.6776 77.7115 13.9006 78.4786 12.375C79.2541 10.8494 80.345 9.66478 81.7513 8.82103C83.1575 7.97728 84.8195 7.5554 86.7371 7.5554C88.6547 7.5554 90.3166 7.97728 91.7229 8.82103C93.1291 9.66478 94.2158 10.8494 94.9828 12.375C95.7584 13.9006 96.1462 15.6776 96.1462 17.706C96.1462 19.7344 95.7584 21.5071 94.9828 23.0242C94.2158 24.5412 93.1291 25.7216 91.7229 26.5653C90.3166 27.4091 88.6547 27.831 86.7371 27.831ZM86.7627 24.1236C87.8024 24.1236 88.6717 23.8381 89.3706 23.2671C90.0695 22.6875 90.5894 21.9119 90.9303 20.9403C91.2797 19.9688 91.4544 18.8864 91.4544 17.6932C91.4544 16.4915 91.2797 15.4048 90.9303 14.4332C90.5894 13.4531 90.0695 12.6733 89.3706 12.0938C88.6717 11.5142 87.8024 11.2244 86.7627 11.2244C85.6973 11.2244 84.811 11.5142 84.1036 12.0938C83.4047 12.6733 82.8806 13.4531 82.5311 14.4332C82.1902 15.4048 82.0198 16.4915 82.0198 17.6932C82.0198 18.8864 82.1902 19.9688 82.5311 20.9403C82.8806 21.9119 83.4047 22.6875 84.1036 23.2671C84.811 23.8381 85.6973 24.1236 86.7627 24.1236ZM97.0386 27.4474V1.26563H106.857C108.868 1.26563 110.556 1.61506 111.919 2.31393C113.291 3.01279 114.327 3.9929 115.026 5.25427C115.733 6.50711 116.087 7.96876 116.087 9.63921C116.087 11.3182 115.729 12.7756 115.013 14.0114C114.306 15.2386 113.262 16.1889 111.881 16.8622C110.5 17.527 108.804 17.8594 106.793 17.8594H99.8V13.9219H106.154C107.33 13.9219 108.293 13.7599 109.043 13.4361C109.793 13.1037 110.347 12.6222 110.705 11.9915C111.071 11.3523 111.255 10.5682 111.255 9.63921C111.255 8.71023 111.071 7.91762 110.705 7.26137C110.338 6.5966 109.78 6.09375 109.03 5.75285C108.28 5.40341 107.313 5.2287 106.128 5.2287H101.782V27.4474H97.0386ZM110.564 15.5838L117.046 27.4474H111.753L105.387 15.5838H110.564ZM117.008 27.4474V7.81108H121.636V27.4474H117.008ZM119.335 5.02415C118.602 5.02415 117.971 4.78126 117.443 4.29546C116.914 3.80114 116.65 3.20881 116.65 2.51847C116.65 1.81961 116.914 1.22728 117.443 0.741481C117.971 0.247164 118.602 4.76837e-06 119.335 4.76837e-06C120.076 4.76837e-06 120.707 0.247164 121.227 0.741481C121.755 1.22728 122.02 1.81961 122.02 2.51847C122.02 3.20881 121.755 3.80114 121.227 4.29546C120.707 4.78126 120.076 5.02415 119.335 5.02415ZM138.675 13.0014L134.456 13.4617C134.337 13.0355 134.128 12.6349 133.83 12.2599C133.54 11.8849 133.148 11.5824 132.653 11.3523C132.159 11.1222 131.554 11.0071 130.838 11.0071C129.875 11.0071 129.065 11.2159 128.409 11.6335C127.761 12.0511 127.442 12.5923 127.45 13.2571C127.442 13.8281 127.651 14.2926 128.077 14.6506C128.511 15.0085 129.227 15.3026 130.224 15.5327L133.574 16.2486C135.432 16.6492 136.813 17.2841 137.716 18.1534C138.628 19.0227 139.088 20.1605 139.097 21.5668C139.088 22.8026 138.726 23.8935 138.01 24.8395C137.303 25.777 136.318 26.5099 135.057 27.0384C133.795 27.5668 132.347 27.831 130.71 27.831C128.307 27.831 126.372 27.3281 124.906 26.3224C123.44 25.3082 122.567 23.8977 122.286 22.0909L126.798 21.6563C127.003 22.5426 127.438 23.2117 128.102 23.6634C128.767 24.1151 129.632 24.3409 130.697 24.3409C131.797 24.3409 132.679 24.1151 133.344 23.6634C134.017 23.2117 134.354 22.6534 134.354 21.9886C134.354 21.4261 134.136 20.9617 133.702 20.5952C133.276 20.2287 132.611 19.9474 131.707 19.7514L128.358 19.0483C126.474 18.6563 125.081 17.9957 124.178 17.0668C123.274 16.1293 122.827 14.9446 122.835 13.5128C122.827 12.3026 123.155 11.2543 123.82 10.3679C124.493 9.47302 125.426 8.78268 126.619 8.29688C127.821 7.80256 129.206 7.5554 130.774 7.5554C133.075 7.5554 134.886 8.04546 136.207 9.02557C137.537 10.0057 138.359 11.331 138.675 13.0014ZM148.366 27.831C146.397 27.831 144.697 27.4219 143.265 26.6037C141.842 25.777 140.747 24.6094 139.98 23.1009C139.212 21.5838 138.829 19.7983 138.829 17.7443C138.829 15.7244 139.212 13.9517 139.98 12.4261C140.755 10.8921 141.837 9.69887 143.227 8.8466C144.616 7.9858 146.248 7.5554 148.123 7.5554C149.333 7.5554 150.475 7.75143 151.549 8.14347C152.631 8.52699 153.586 9.12358 154.413 9.93324C155.248 10.7429 155.904 11.7742 156.381 13.027C156.859 14.2713 157.097 15.7543 157.097 17.4759V18.8949H141.002V15.7756H152.661C152.653 14.8892 152.461 14.1009 152.086 13.4105C151.711 12.7117 151.187 12.1619 150.514 11.7614C149.849 11.3608 149.073 11.1605 148.187 11.1605C147.241 11.1605 146.41 11.3906 145.694 11.8509C144.978 12.3026 144.42 12.8992 144.019 13.6406C143.627 14.3736 143.427 15.179 143.418 16.0568V18.7798C143.418 19.9219 143.627 20.902 144.045 21.7202C144.462 22.5298 145.046 23.152 145.796 23.5867C146.546 24.0128 147.424 24.2259 148.43 24.2259C149.103 24.2259 149.712 24.1321 150.258 23.9446C150.803 23.7486 151.276 23.4631 151.677 23.0881C152.078 22.7131 152.38 22.2486 152.585 21.6946L156.906 22.1804C156.633 23.3224 156.113 24.3196 155.346 25.1719C154.587 26.0156 153.616 26.6719 152.431 27.1406C151.247 27.6009 149.891 27.831 148.366 27.831Z" fill="white"/>
</svg>
