<svg width="25" height="25" viewBox="0 0 25 25" fill="none" xmlns="http://www.w3.org/2000/svg">
<path d="M12.501 2.08337V1.30212H12.501L12.501 2.08337ZM22.918 12.5004L23.6992 12.5004V12.5004H22.918ZM12.501 22.9164L12.501 23.6976H12.501V22.9164ZM3.92871 22.4584L4.189 23.195L4.18909 23.195L3.92871 22.4584ZM2.33398 20.8636L3.0706 21.1239L3.07065 21.1238L2.33398 20.8636ZM2.08398 12.5004H1.30273V12.5004L2.08398 12.5004ZM3.30185 18.1227L2.56518 17.8626L3.30185 18.1227ZM3.23282 17.2525L2.53806 17.6098L3.23282 17.2525ZM7.45901 21.6152L7.08013 22.2984L7.45901 21.6152ZM6.55757 21.5291L6.81795 22.2657L6.55757 21.5291ZM12.501 2.08337V2.86462C17.8225 2.86462 22.1367 7.17887 22.1367 12.5004H22.918H23.6992C23.6992 6.31593 18.6854 1.30212 12.501 1.30212V2.08337ZM22.918 12.5004L22.1367 12.5003C22.1365 17.8216 17.8224 22.1351 12.501 22.1351V22.9164V23.6976C18.6852 23.6976 23.699 18.6847 23.6992 12.5004L22.918 12.5004ZM12.501 22.9164L12.501 22.1351C10.8078 22.1351 9.21926 21.6979 7.83788 20.9319L7.45901 21.6152L7.08013 22.2984C8.68684 23.1894 10.5353 23.6976 12.501 23.6976L12.501 22.9164ZM6.55757 21.5291L6.29719 20.7925L3.66833 21.7218L3.92871 22.4584L4.18909 23.195L6.81795 22.2657L6.55757 21.5291ZM3.92871 22.4584L3.66842 21.7218C3.29689 21.853 2.93931 21.4955 3.0706 21.1239L2.33398 20.8636L1.59737 20.6034C1.02847 22.2134 2.57901 23.7639 4.189 23.195L3.92871 22.4584ZM2.33398 20.8636L3.07065 21.1238L4.03852 18.3829L3.30185 18.1227L2.56518 17.8626L1.59731 20.6035L2.33398 20.8636ZM3.23282 17.2525L3.92759 16.8952C3.24992 15.5774 2.86528 14.0849 2.86523 12.5003L2.08398 12.5004L1.30273 12.5004C1.30279 14.3409 1.75018 16.0777 2.53806 17.6098L3.23282 17.2525ZM2.08398 12.5004H2.86523C2.86523 7.17893 7.17954 2.8647 12.501 2.86462L12.501 2.08337L12.501 1.30212C6.31662 1.30221 1.30273 6.31597 1.30273 12.5004H2.08398ZM3.30185 18.1227L4.03852 18.3829C4.21733 17.8765 4.15581 17.339 3.92759 16.8952L3.23282 17.2525L2.53806 17.6098C2.58726 17.7055 2.58837 17.7969 2.56518 17.8626L3.30185 18.1227ZM7.45901 21.6152L7.83788 20.9319C7.38402 20.6802 6.82419 20.6062 6.29719 20.7925L6.55757 21.5291L6.81795 22.2657C6.88619 22.2415 6.98187 22.2439 7.08013 22.2984L7.45901 21.6152Z" fill="#10234D"/>
<circle cx="7.3431" cy="12.552" r="1.30208" fill="#10234D"/>
<circle cx="12.5521" cy="12.552" r="1.30208" fill="#10234D"/>
<circle cx="17.7591" cy="12.552" r="1.30208" fill="#10234D"/>
</svg>
