<svg width="24" height="24" viewBox="0 0 24 24" fill="none" xmlns="http://www.w3.org/2000/svg">
<path d="M23.511 9.85363L10.2309 23.1338C9.92054 23.4439 9.49979 23.6181 9.06108 23.6181C8.62238 23.6181 8.20162 23.4439 7.89131 23.1338L0.483794 15.687C0.174 15.3767 0 14.9562 0 14.5177C0 14.0793 0.174 13.6587 0.483794 13.3485L2.55235 11.2799C2.8625 10.9711 3.28236 10.7977 3.72006 10.7977C4.15775 10.7977 4.57762 10.9711 4.88776 11.2799L9.10245 15.3674L19.1102 5.48276C19.4203 5.1736 19.8404 5 20.2784 5C20.7163 5 21.1364 5.1736 21.4466 5.48276L23.51 7.50375C23.6652 7.65752 23.7883 7.84049 23.8724 8.04211C23.9566 8.24373 23.9999 8.46001 24 8.67847C24.0001 8.89693 23.9569 9.11325 23.873 9.31495C23.7891 9.51664 23.6661 9.69972 23.511 9.85363Z" fill="#DDF34F"/>
<path d="M18.7867 3.25901L9.86959 12.1761C9.66123 12.3843 9.37871 12.5013 9.08414 12.5013C8.78956 12.5013 8.50705 12.3843 8.29868 12.1761L3.32485 7.17585C3.11683 6.96752 3 6.68515 3 6.39075C3 6.09635 3.11683 5.81398 3.32485 5.60564L4.7138 4.21669C4.92205 4.00931 5.20397 3.89288 5.49786 3.89288C5.79175 3.89288 6.07368 4.00931 6.28193 4.21669L9.11192 6.96126L15.8317 0.324155C16.0399 0.116565 16.322 0 16.6161 0C16.9101 0 17.1922 0.116565 17.4005 0.324155L18.786 1.68116C18.8902 1.78441 18.9729 1.90727 19.0293 2.04265C19.0858 2.17803 19.1149 2.32325 19.115 2.46994C19.1151 2.61663 19.0861 2.76187 19.0297 2.8973C18.9734 3.03273 18.8908 3.15567 18.7867 3.25901Z" fill="#DDF34F"/>
</svg>
