<svg width="97" height="17" viewBox="0 0 97 17" fill="none" xmlns="http://www.w3.org/2000/svg">
<path d="M17.1736 7.77823L13.6323 10.834L14.7112 15.4039C14.7708 15.652 14.7554 15.9121 14.6672 16.1515C14.5789 16.3909 14.4217 16.5987 14.2154 16.7488C14.0091 16.8988 13.7629 16.9844 13.508 16.9946C13.2531 17.0049 13.0009 16.9393 12.7832 16.8063L8.80901 14.3604L4.83249 16.8063C4.61484 16.9385 4.36291 17.0035 4.10844 16.9929C3.85396 16.9823 3.60831 16.8966 3.40243 16.7467C3.19654 16.5967 3.03962 16.3892 2.95142 16.1503C2.86322 15.9113 2.8477 15.6516 2.90679 15.4039L3.98966 10.834L0.448323 7.77823C0.255752 7.6118 0.11648 7.39232 0.0479025 7.1472C-0.0206753 6.90209 -0.0155205 6.6422 0.0627231 6.4C0.140967 6.15779 0.288831 5.94401 0.487851 5.78534C0.686871 5.62668 0.928225 5.53016 1.18177 5.50784L5.82485 5.13325L7.61598 0.798658C7.71293 0.562425 7.87794 0.360358 8.09002 0.218145C8.30211 0.0759331 8.55169 0 8.80705 0C9.0624 0 9.31198 0.0759331 9.52407 0.218145C9.73616 0.360358 9.90117 0.562425 9.99811 0.798658L11.7885 5.13325L16.4315 5.50784C16.6856 5.52933 16.9276 5.62531 17.1274 5.78376C17.3271 5.9422 17.4757 6.15607 17.5544 6.39857C17.6331 6.64107 17.6386 6.9014 17.57 7.14697C17.5014 7.39253 17.3619 7.61239 17.1689 7.77902L17.1736 7.77823Z" fill="#FFBE12" fill-opacity="0.84"/>
<path d="M36.7908 7.77823L33.2495 10.834L34.3284 15.4039C34.388 15.652 34.3726 15.9121 34.2844 16.1515C34.1961 16.3909 34.0389 16.5987 33.8326 16.7488C33.6263 16.8988 33.3801 16.9844 33.1252 16.9946C32.8703 17.0049 32.618 16.9393 32.4004 16.8063L28.4262 14.3604L24.4497 16.8063C24.232 16.9385 23.9801 17.0035 23.7256 16.9929C23.4711 16.9823 23.2255 16.8966 23.0196 16.7467C22.8137 16.5967 22.6568 16.3892 22.5686 16.1503C22.4804 15.9113 22.4649 15.6516 22.524 15.4039L23.6068 10.834L20.0655 7.77823C19.8729 7.6118 19.7337 7.39232 19.6651 7.1472C19.5965 6.90209 19.6017 6.6422 19.6799 6.4C19.7582 6.15779 19.906 5.94401 20.105 5.78534C20.3041 5.62668 20.5454 5.53016 20.799 5.50784L25.442 5.13325L27.2332 0.798658C27.3301 0.562425 27.4951 0.360358 27.7072 0.218145C27.9193 0.0759331 28.1689 0 28.4242 0C28.6796 0 28.9292 0.0759331 29.1413 0.218145C29.3533 0.360358 29.5184 0.562425 29.6153 0.798658L31.4056 5.13325L36.0487 5.50784C36.3028 5.52933 36.5448 5.62531 36.7446 5.78376C36.9443 5.9422 37.0929 6.15607 37.1716 6.39857C37.2503 6.64107 37.2557 6.9014 37.1872 7.14697C37.1186 7.39253 36.9791 7.61239 36.7861 7.77902L36.7908 7.77823Z" fill="#FFBE12" fill-opacity="0.84"/>
<path d="M56.408 7.77823L52.8667 10.834L53.9456 15.4039C54.0051 15.652 53.9898 15.9121 53.9016 16.1515C53.8133 16.3909 53.6561 16.5987 53.4498 16.7488C53.2435 16.8988 52.9973 16.9844 52.7424 16.9946C52.4875 17.0049 52.2352 16.9393 52.0176 16.8063L48.0434 14.3604L44.0669 16.8063C43.8492 16.9385 43.5973 17.0035 43.3428 16.9929C43.0883 16.9823 42.8427 16.8966 42.6368 16.7467C42.4309 16.5967 42.274 16.3892 42.1858 16.1503C42.0976 15.9113 42.0821 15.6516 42.1412 15.4039L43.224 10.834L39.6827 7.77823C39.4901 7.6118 39.3509 7.39232 39.2823 7.1472C39.2137 6.90209 39.2189 6.6422 39.2971 6.4C39.3753 6.15779 39.5232 5.94401 39.7222 5.78534C39.9212 5.62668 40.1626 5.53016 40.4161 5.50784L45.0592 5.13325L46.8504 0.798658C46.9473 0.562425 47.1123 0.360358 47.3244 0.218145C47.5365 0.0759331 47.7861 0 48.0414 0C48.2968 0 48.5464 0.0759331 48.7584 0.218145C48.9705 0.360358 49.1355 0.562425 49.2325 0.798658L51.0228 5.13325L55.6659 5.50784C55.92 5.52933 56.162 5.62531 56.3618 5.78376C56.5615 5.9422 56.71 6.15607 56.7888 6.39857C56.8675 6.64107 56.8729 6.9014 56.8044 7.14697C56.7358 7.39253 56.5963 7.61239 56.4033 7.77902L56.408 7.77823Z" fill="#FFBE12" fill-opacity="0.84"/>
<path d="M76.0252 7.77823L72.4839 10.834L73.5628 15.4039C73.6223 15.652 73.607 15.9121 73.5187 16.1515C73.4305 16.3909 73.2733 16.5987 73.067 16.7488C72.8606 16.8988 72.6145 16.9844 72.3596 16.9946C72.1046 17.0049 71.8524 16.9393 71.6347 16.8063L67.6606 14.3604L63.6841 16.8063C63.4664 16.9385 63.2145 17.0035 62.96 16.9929C62.7055 16.9823 62.4599 16.8966 62.254 16.7467C62.0481 16.5967 61.8912 16.3892 61.803 16.1503C61.7148 15.9113 61.6993 15.6516 61.7584 15.4039L62.8412 10.834L59.2999 7.77823C59.1073 7.6118 58.968 7.39232 58.8995 7.1472C58.8309 6.90209 58.836 6.6422 58.9143 6.4C58.9925 6.15779 59.1404 5.94401 59.3394 5.78534C59.5384 5.62668 59.7798 5.53016 60.0333 5.50784L64.6764 5.13325L66.4675 0.798658C66.5645 0.562425 66.7295 0.360358 66.9416 0.218145C67.1537 0.0759331 67.4033 0 67.6586 0C67.914 0 68.1635 0.0759331 68.3756 0.218145C68.5877 0.360358 68.7527 0.562425 68.8497 0.798658L70.64 5.13325L75.2831 5.50784C75.5371 5.52933 75.7792 5.62531 75.9789 5.78376C76.1787 5.9422 76.3272 6.15607 76.406 6.39857C76.4847 6.64107 76.4901 6.9014 76.4215 7.14697C76.353 7.39253 76.2135 7.61239 76.0205 7.77902L76.0252 7.77823Z" fill="#FFBE12" fill-opacity="0.84"/>
<path d="M95.6463 7.77823L92.105 10.834L93.1839 15.4039C93.2434 15.652 93.2281 15.9121 93.1398 16.1515C93.0516 16.3909 92.8944 16.5987 92.6881 16.7488C92.4817 16.8988 92.2356 16.9844 91.9807 16.9946C91.7257 17.0049 91.4735 16.9393 91.2558 16.8063L87.2817 14.3604L83.3051 16.8063C83.0875 16.9385 82.8356 17.0035 82.5811 16.9929C82.3266 16.9823 82.081 16.8966 81.8751 16.7467C81.6692 16.5967 81.5123 16.3892 81.4241 16.1503C81.3359 15.9113 81.3204 15.6516 81.3795 15.4039L82.4623 10.834L78.921 7.77823C78.7284 7.6118 78.5891 7.39232 78.5206 7.1472C78.452 6.90209 78.4571 6.6422 78.5354 6.4C78.6136 6.15779 78.7615 5.94401 78.9605 5.78534C79.1595 5.62668 79.4009 5.53016 79.6544 5.50784L84.2975 5.13325L86.0886 0.798658C86.1856 0.562425 86.3506 0.360358 86.5627 0.218145C86.7748 0.0759331 87.0244 0 87.2797 0C87.5351 0 87.7846 0.0759331 87.9967 0.218145C88.2088 0.360358 88.3738 0.562425 88.4708 0.798658L90.2611 5.13325L94.9042 5.50784C95.1582 5.52933 95.4003 5.62531 95.6 5.78376C95.7998 5.9422 95.9483 6.15607 96.0271 6.39857C96.1058 6.64107 96.1112 6.9014 96.0426 7.14697C95.9741 7.39253 95.8346 7.61239 95.6416 7.77902L95.6463 7.77823Z" fill="#FFBE12" fill-opacity="0.84"/>
</svg>
