<svg width="14" height="10" viewBox="0 0 14 10" fill="none" xmlns="http://www.w3.org/2000/svg">
<path d="M13.1777 0.429907C13.1389 0.156501 12.8859 -0.0337016 12.6125 0.00507774L8.15705 0.637024C7.88364 0.675803 7.69344 0.92888 7.73222 1.20229C7.771 1.47569 8.02408 1.66589 8.29748 1.62711L12.2578 1.06538L12.8196 5.02575C12.8584 5.29915 13.1114 5.48935 13.3848 5.45057C13.6582 5.41179 13.8484 5.15872 13.8097 4.88531L13.1777 0.429907ZM7.04341 6.447L7.31726 6.02866L7.04341 6.447ZM8.39051 6.21112L7.99081 5.91072L8.39051 6.21112ZM5.47319 5.41912L5.19934 5.83746L5.47319 5.41912ZM0.333008 9.00006L0.66519 9.37377L4.59331 5.8821L4.26113 5.5084L3.92895 5.13469L0.000825923 8.62636L0.333008 9.00006ZM5.47319 5.41912L5.19934 5.83746L6.76957 6.86534L7.04341 6.447L7.31726 6.02866L5.74704 5.00078L5.47319 5.41912ZM8.39051 6.21112L8.79021 6.51152L13.0824 0.800522L12.6827 0.500123L12.283 0.199724L7.99081 5.91072L8.39051 6.21112ZM7.04341 6.447L6.76957 6.86534C7.4311 7.29838 8.31518 7.14357 8.79021 6.51152L8.39051 6.21112L7.99081 5.91072C7.83246 6.1214 7.53777 6.17301 7.31726 6.02866L7.04341 6.447ZM4.26113 5.5084L4.59331 5.8821C4.76207 5.73209 5.01043 5.7138 5.19934 5.83746L5.47319 5.41912L5.74704 5.00078C5.18029 4.62979 4.43523 4.68467 3.92895 5.13469L4.26113 5.5084Z" fill="#1143B6"/>
</svg>
