<svg width="22" height="22" viewBox="0 0 22 22" fill="none" xmlns="http://www.w3.org/2000/svg">
<path d="M5.11629 16.5508C5.45592 15.8338 5.99213 15.2279 6.66258 14.8036C7.33302 14.3793 8.11013 14.154 8.90355 14.154C9.69697 14.154 10.4741 14.3793 11.1445 14.8036C11.815 15.2279 12.3512 15.8338 12.6908 16.5508H17.2848C17.4435 16.5508 17.5958 16.4877 17.7081 16.3755C17.8204 16.2632 17.8834 16.1109 17.8834 15.9522V5.1763C17.8834 5.01752 17.8204 4.86525 17.7081 4.75298C17.5958 4.64071 17.4435 4.57764 17.2848 4.57764H4.11428C3.95551 4.57764 3.80324 4.64071 3.69097 4.75298C3.5787 4.86525 3.51563 5.01752 3.51562 5.1763V15.9522C3.51562 16.1109 3.5787 16.2632 3.69097 16.3755C3.80324 16.4877 3.95551 16.5508 4.11428 16.5508H5.11629Z" stroke="black" stroke-width="1.5" stroke-linecap="round" stroke-linejoin="round"/>
<g clip-path="url(#clip0_511_655)">
<path d="M8.5936 14.5441C10.0541 14.5441 11.238 13.3602 11.238 11.8998C11.238 10.4393 10.0541 9.25537 8.5936 9.25537C7.13315 9.25537 5.94922 10.4393 5.94922 11.8998C5.94922 13.3602 7.13315 14.5441 8.5936 14.5441Z" stroke="black" stroke-width="1.5" stroke-linecap="round" stroke-linejoin="round"/>
<path d="M14.5444 14.544H15.8666V6.61084H5.28906V7.93303" stroke="black" stroke-width="1.5" stroke-linecap="round" stroke-linejoin="round"/>
</g>
<defs>
<clipPath id="clip0_511_655">
<rect width="21.1551" height="21.1551" fill="white"/>
</clipPath>
</defs>
</svg>
