<svg width="25" height="25" viewBox="0 0 25 25" fill="none" xmlns="http://www.w3.org/2000/svg">
<path d="M15.1722 15.1767L12.7923 21.7231C12.7367 22.1824 12.6367 22.5785 12.5056 22.8582C12.3745 23.1379 12.2186 23.2878 12.059 23.2878C11.8993 23.2878 11.7434 23.1379 11.6123 22.8582C11.4812 22.5785 11.3812 22.1824 11.3256 21.7231L8.9496 15.1767L2.4043 12.7963C1.94511 12.7408 1.54908 12.6407 1.26941 12.5096C0.989745 12.3785 0.839844 12.2226 0.839844 12.0629C0.839844 11.9032 0.989745 11.7473 1.26941 11.6162C1.54908 11.485 1.94511 11.385 2.4043 11.3294L8.9496 8.95296L11.3295 2.40653C11.3851 1.94725 11.4851 1.55115 11.6162 1.27144C11.7473 0.991725 11.9032 0.841797 12.0629 0.841797C12.2225 0.841797 12.3784 0.991725 12.5095 1.27144C12.6406 1.55115 12.7406 1.94725 12.7962 2.40653L15.1761 8.95296L21.7214 11.3333C22.1806 11.3889 22.5767 11.489 22.8563 11.6201C23.136 11.7512 23.2859 11.9071 23.2859 12.0668C23.2859 12.2265 23.136 12.3824 22.8563 12.5135C22.5767 12.6446 22.1806 12.7447 21.7214 12.8002L15.1722 15.1767Z" stroke="#666666" stroke-width="1.68345" stroke-linecap="round" stroke-linejoin="round"/>
</svg>
