<svg width="34" height="34" viewBox="0 0 34 34" fill="none" xmlns="http://www.w3.org/2000/svg">
<circle cx="16.7148" cy="16.7148" r="16.297" stroke="#004A79" stroke-width="0.835743"/>
<path d="M29.6795 27.1275C29.5979 27.264 29.4778 27.378 29.3319 27.4574C29.186 27.5368 29.0195 27.5789 28.8499 27.5791H23.1607C23.0012 27.5791 22.8442 27.542 22.7043 27.4715C22.5645 27.4009 22.4463 27.2991 22.3607 27.1754L17.5617 20.2511L10.5878 27.294C10.4178 27.4617 10.1827 27.5611 9.93337 27.5706C9.68409 27.5802 9.44074 27.4992 9.25609 27.3451C9.07144 27.191 8.96038 26.9763 8.94698 26.7476C8.93357 26.5188 9.01891 26.2945 9.18449 26.1231L16.5057 18.7233L9.08612 8.02404C8.99474 7.89241 8.94358 7.74065 8.93801 7.58465C8.93244 7.42864 8.97265 7.27413 9.05444 7.13729C9.13623 7.00045 9.25659 6.88631 9.40291 6.80684C9.54923 6.72736 9.71614 6.68547 9.88615 6.68555H15.5753C15.7348 6.68559 15.8918 6.72262 16.0317 6.79319C16.1715 6.86376 16.2897 6.9656 16.3753 7.08927L21.1743 14.0135L28.1482 6.97066C28.3182 6.80298 28.5533 6.70359 28.8026 6.69403C29.0519 6.68447 29.2953 6.7655 29.4799 6.91957C29.6646 7.07364 29.7756 7.28832 29.789 7.51707C29.8024 7.74582 29.7171 7.9702 29.5515 8.14157L22.2303 15.5359L29.6499 26.2417C29.7408 26.3734 29.7914 26.5251 29.7967 26.6809C29.8019 26.8367 29.7614 26.9909 29.6795 27.1275Z" fill="#004A79"/>
</svg>
