<svg width="87" height="23" viewBox="0 0 87 23" fill="none" xmlns="http://www.w3.org/2000/svg">
<path d="M7.44882 8.68384L3.74942 11.5462L4.58288 16.1672C4.62908 16.4181 4.59989 16.6771 4.49898 16.9114C4.39808 17.1457 4.23 17.3449 4.01596 17.4837C3.80193 17.6225 3.55155 17.6948 3.29645 17.6914C3.04135 17.688 2.79298 17.6091 2.58271 17.4646L-1.25523 14.8101L-5.35664 17.0403C-5.58104 17.1607 -5.83607 17.2121 -6.08962 17.1879C-6.34317 17.1638 -6.58389 17.0651 -6.78148 16.9044C-6.97908 16.7437 -7.1247 16.5281 -7.20001 16.2848C-7.27533 16.0415 -7.27697 15.7813 -7.20473 15.5371L-5.87949 11.0315L-9.25266 7.79107C-9.43607 7.6146 -9.56343 7.388 -9.61882 7.13957C-9.67422 6.89114 -9.6552 6.6319 -9.56414 6.39422C-9.47308 6.15654 -9.31402 5.95095 -9.10681 5.80314C-8.8996 5.65532 -8.65344 5.57182 -8.39907 5.56307L-3.74261 5.43685L-1.72267 1.20404C-1.61324 0.973324 -1.43769 0.780352 -1.21831 0.649663C-0.998935 0.518974 -0.745653 0.456472 -0.490665 0.470102C-0.235676 0.483732 0.00950022 0.57288 0.213694 0.72621C0.417887 0.87954 0.571873 1.09013 0.656075 1.3312L2.21249 5.75517L6.82896 6.37707C7.0815 6.41209 7.31809 6.52085 7.50909 6.68974C7.70009 6.85862 7.83701 7.08011 7.90268 7.32647C7.96836 7.57282 7.95987 7.83308 7.87829 8.07463C7.7967 8.31618 7.64565 8.52828 7.44406 8.68437L7.44882 8.68384Z" fill="#FFBE12" fill-opacity="0.84"/>
<path d="M27.0387 9.73071L23.3393 12.5931L24.1727 17.2141C24.2189 17.465 24.1897 17.7239 24.0888 17.9583C23.9879 18.1926 23.8198 18.3917 23.6058 18.5306C23.3918 18.6694 23.1414 18.7417 22.8863 18.7383C22.6312 18.7349 22.3828 18.656 22.1726 18.5115L18.3346 15.857L14.2332 18.0871C14.0088 18.2076 13.7538 18.259 13.5002 18.2348C13.2467 18.2106 13.006 18.112 12.8084 17.9513C12.6108 17.7906 12.4651 17.575 12.3898 17.3317C12.3145 17.0884 12.3129 16.8282 12.3851 16.584L13.7104 12.0784L10.3372 8.83795C10.1538 8.66147 10.0264 8.43487 9.97102 8.18644C9.91562 7.93802 9.93464 7.67878 10.0257 7.4411C10.1168 7.20342 10.2758 6.99783 10.483 6.85001C10.6902 6.70219 10.9364 6.6187 11.1908 6.60995L15.8472 6.48372L17.8672 2.25092C17.9766 2.0202 18.1522 1.82723 18.3715 1.69654C18.5909 1.56585 18.8442 1.50335 19.0992 1.51698C19.3542 1.53061 19.5993 1.61975 19.8035 1.77308C20.0077 1.92642 20.1617 2.137 20.2459 2.37807L21.8023 6.80205L26.4188 7.42395C26.6713 7.45896 26.9079 7.56773 27.0989 7.73661C27.2899 7.90549 27.4268 8.12699 27.4925 8.37334C27.5582 8.61969 27.5497 8.87995 27.4681 9.1215C27.3865 9.36305 27.2355 9.57516 27.0339 9.73124L27.0387 9.73071Z" fill="#FFBE12" fill-opacity="0.84"/>
<path d="M46.6285 10.7786L42.9291 13.641L43.7626 18.2619C43.8088 18.5128 43.7796 18.7718 43.6787 19.0061C43.5778 19.2404 43.4097 19.4396 43.1956 19.5784C42.9816 19.7173 42.7312 19.7895 42.4761 19.7862C42.221 19.7828 41.9727 19.7039 41.7624 19.5594L37.9245 16.9048L33.8231 19.135C33.5986 19.2555 33.3436 19.3068 33.0901 19.2827C32.8365 19.2585 32.5958 19.1598 32.3982 18.9991C32.2006 18.8384 32.055 18.6228 31.9797 18.3795C31.9044 18.1362 31.9027 17.8761 31.975 17.6318L33.3002 13.1262L29.927 9.8858C29.7436 9.70932 29.6163 9.48272 29.5609 9.2343C29.5055 8.98587 29.5245 8.72663 29.6155 8.48895C29.7066 8.25127 29.8657 8.04568 30.0729 7.89786C30.2801 7.75005 30.5262 7.66655 30.7806 7.6578L35.4371 7.53158L37.457 3.29877C37.5664 3.06805 37.742 2.87508 37.9614 2.74439C38.1808 2.6137 38.434 2.5512 38.689 2.56483C38.944 2.57846 39.1892 2.66761 39.3934 2.82094C39.5976 2.97427 39.7516 3.18485 39.8358 3.42592L41.3922 7.8499L46.0086 8.4718C46.2612 8.50681 46.4978 8.61558 46.6888 8.78446C46.8798 8.95335 47.0167 9.17484 47.0824 9.42119C47.148 9.66755 47.1396 9.9278 47.058 10.1694C46.9764 10.4109 46.8253 10.623 46.6237 10.7791L46.6285 10.7786Z" fill="#FFBE12" fill-opacity="0.84"/>
<path d="M66.2183 11.8254L62.519 14.6878L63.3524 19.3088C63.3986 19.5597 63.3694 19.8187 63.2685 20.053C63.1676 20.2873 62.9995 20.4865 62.7855 20.6253C62.5715 20.7641 62.3211 20.8364 62.066 20.833C61.8109 20.8296 61.5625 20.7507 61.3522 20.6063L57.5143 17.9517L53.4129 20.1819C53.1885 20.3023 52.9335 20.3537 52.6799 20.3295C52.4264 20.3054 52.1856 20.2067 51.988 20.046C51.7905 19.8853 51.6448 19.6697 51.5695 19.4264C51.4942 19.1831 51.4926 18.9229 51.5648 18.6787L52.89 14.1731L49.5169 10.9327C49.3335 10.7562 49.2061 10.5296 49.1507 10.2812C49.0953 10.0327 49.1143 9.7735 49.2054 9.53582C49.2965 9.29814 49.4555 9.09256 49.6627 8.94474C49.8699 8.79692 50.1161 8.71342 50.3705 8.70467L55.0269 8.57845L57.0469 4.34565C57.1563 4.11493 57.3318 3.92195 57.5512 3.79126C57.7706 3.66058 58.0239 3.59807 58.2789 3.6117C58.5339 3.62533 58.779 3.71448 58.9832 3.86781C59.1874 4.02114 59.3414 4.23173 59.4256 4.4728L60.982 8.89678L65.5985 9.51867C65.851 9.55369 66.0876 9.66245 66.2786 9.83134C66.4696 10.0002 66.6065 10.2217 66.6722 10.4681C66.7379 10.7144 66.7294 10.9747 66.6478 11.2162C66.5662 11.4578 66.4152 11.6699 66.2136 11.826L66.2183 11.8254Z" fill="#FFBE12" fill-opacity="0.84"/>
<path d="M85.8082 12.8723L82.1088 15.7347L82.9423 20.3557C82.9885 20.6066 82.9593 20.8655 82.8584 21.0999C82.7575 21.3342 82.5894 21.5333 82.3753 21.6722C82.1613 21.811 81.9109 21.8833 81.6558 21.8799C81.4007 21.8765 81.1524 21.7976 80.9421 21.6531L77.1041 18.9986L73.0027 21.2287C72.7783 21.3492 72.5233 21.4006 72.2698 21.3764C72.0162 21.3522 71.7755 21.2536 71.5779 21.0929C71.3803 20.9322 71.2347 20.7166 71.1594 20.4733C71.084 20.23 71.0824 19.9698 71.1546 19.7256L72.4799 15.22L69.1067 11.9795C68.9233 11.8031 68.7959 11.5765 68.7406 11.328C68.6852 11.0796 68.7042 10.8204 68.7952 10.5827C68.8863 10.345 69.0454 10.1394 69.2526 9.99161C69.4598 9.8438 69.7059 9.7603 69.9603 9.75155L74.6168 9.62533L76.6367 5.39252C76.7461 5.1618 76.9217 4.96883 77.1411 4.83814C77.3604 4.70745 77.6137 4.64495 77.8687 4.65858C78.1237 4.67221 78.3689 4.76136 78.5731 4.91469C78.7773 5.06802 78.9312 5.2786 79.0155 5.51967L80.5719 9.94365L85.1883 10.5655C85.4409 10.6006 85.6775 10.7093 85.8685 10.8782C86.0595 11.0471 86.1964 11.2686 86.2621 11.5149C86.3277 11.7613 86.3192 12.0216 86.2377 12.2631C86.1561 12.5047 86.005 12.7168 85.8034 12.8728L85.8082 12.8723Z" fill="#FFBE12" fill-opacity="0.84"/>
</svg>
